<svg width="674" height="250" viewBox="0 0 674 250" fill="none" xmlns="http://www.w3.org/2000/svg">
<rect y="30" width="674" height="190" rx="15" fill="white"/>
<rect y="30" width="674" height="190" rx="15" fill="#5554D4" fill-opacity="0.55"/>
<rect x="10" y="20" width="654" height="210" rx="15" fill="white"/>
<rect x="10" y="20" width="654" height="210" rx="15" fill="#5554D4" fill-opacity="0.7"/>
<rect x="20" width="634" height="250" rx="15" fill="white"/>
<mask id="mask0_241_59" style="mask-type:alpha" maskUnits="userSpaceOnUse" x="20" y="0" width="634" height="250">
<rect x="20" width="634" height="250" rx="15" fill="white"/>
</mask>
<g mask="url(#mask0_241_59)">
<rect x="20" width="634" height="250" rx="15" fill="url(#paint0_radial_241_59)"/>
<path d="M557.313 219.8H469.313L516.513 101.8H574.913L557.313 219.8ZM665.313 219.8H577.313L624.513 101.8H682.913L665.313 219.8Z" fill="#3332CB" fill-opacity="0.2"/>
</g>
<path d="M69.0824 75.95H67.5524L68.9924 72.545H69.9674L69.0824 75.95ZM71.5124 75.95H69.9824L71.4224 72.545H72.3974L71.5124 75.95ZM79.8096 72.545V83H78.4446V72.545H79.8096ZM84.0011 75.905V80.75C84.0011 81.15 84.0861 81.435 84.2561 81.605C84.4261 81.765 84.7211 81.845 85.1411 81.845H86.1461V83H84.9161C84.1561 83 83.5861 82.825 83.2061 82.475C82.8261 82.125 82.6361 81.55 82.6361 80.75V75.905H81.5711V74.78H82.6361V72.71H84.0011V74.78H86.1461V75.905H84.0011ZM103.149 74.78L100.584 83H99.1739L97.1939 76.475L95.2139 83H93.8039L91.2239 74.78H92.6189L94.5089 81.68L96.5489 74.78H97.9439L99.9389 81.695L101.799 74.78H103.149ZM104.194 78.86C104.194 78.02 104.364 77.285 104.704 76.655C105.044 76.015 105.509 75.52 106.099 75.17C106.699 74.82 107.364 74.645 108.094 74.645C108.814 74.645 109.439 74.8 109.969 75.11C110.499 75.42 110.894 75.81 111.154 76.28V74.78H112.534V83H111.154V81.47C110.884 81.95 110.479 82.35 109.939 82.67C109.409 82.98 108.789 83.135 108.079 83.135C107.349 83.135 106.689 82.955 106.099 82.595C105.509 82.235 105.044 81.73 104.704 81.08C104.364 80.43 104.194 79.69 104.194 78.86ZM111.154 78.875C111.154 78.255 111.029 77.715 110.779 77.255C110.529 76.795 110.189 76.445 109.759 76.205C109.339 75.955 108.874 75.83 108.364 75.83C107.854 75.83 107.389 75.95 106.969 76.19C106.549 76.43 106.214 76.78 105.964 77.24C105.714 77.7 105.589 78.24 105.589 78.86C105.589 79.49 105.714 80.04 105.964 80.51C106.214 80.97 106.549 81.325 106.969 81.575C107.389 81.815 107.854 81.935 108.364 81.935C108.874 81.935 109.339 81.815 109.759 81.575C110.189 81.325 110.529 80.97 110.779 80.51C111.029 80.04 111.154 79.495 111.154 78.875ZM117.95 83.135C117.32 83.135 116.755 83.03 116.255 82.82C115.755 82.6 115.36 82.3 115.07 81.92C114.78 81.53 114.62 81.085 114.59 80.585H116C116.04 80.995 116.23 81.33 116.57 81.59C116.92 81.85 117.375 81.98 117.935 81.98C118.455 81.98 118.865 81.865 119.165 81.635C119.465 81.405 119.615 81.115 119.615 80.765C119.615 80.405 119.455 80.14 119.135 79.97C118.815 79.79 118.32 79.615 117.65 79.445C117.04 79.285 116.54 79.125 116.15 78.965C115.77 78.795 115.44 78.55 115.16 78.23C114.89 77.9 114.755 77.47 114.755 76.94C114.755 76.52 114.88 76.135 115.13 75.785C115.38 75.435 115.735 75.16 116.195 74.96C116.655 74.75 117.18 74.645 117.77 74.645C118.68 74.645 119.415 74.875 119.975 75.335C120.535 75.795 120.835 76.425 120.875 77.225H119.51C119.48 76.795 119.305 76.45 118.985 76.19C118.675 75.93 118.255 75.8 117.725 75.8C117.235 75.8 116.845 75.905 116.555 76.115C116.265 76.325 116.12 76.6 116.12 76.94C116.12 77.21 116.205 77.435 116.375 77.615C116.555 77.785 116.775 77.925 117.035 78.035C117.305 78.135 117.675 78.25 118.145 78.38C118.735 78.54 119.215 78.7 119.585 78.86C119.955 79.01 120.27 79.24 120.53 79.55C120.8 79.86 120.94 80.265 120.95 80.765C120.95 81.215 120.825 81.62 120.575 81.98C120.325 82.34 119.97 82.625 119.51 82.835C119.06 83.035 118.54 83.135 117.95 83.135ZM126.766 78.86C126.766 78.02 126.936 77.285 127.276 76.655C127.616 76.015 128.081 75.52 128.671 75.17C129.271 74.82 129.936 74.645 130.666 74.645C131.386 74.645 132.011 74.8 132.541 75.11C133.071 75.42 133.466 75.81 133.726 76.28V74.78H135.106V83H133.726V81.47C133.456 81.95 133.051 82.35 132.511 82.67C131.981 82.98 131.361 83.135 130.651 83.135C129.921 83.135 129.261 82.955 128.671 82.595C128.081 82.235 127.616 81.73 127.276 81.08C126.936 80.43 126.766 79.69 126.766 78.86ZM133.726 78.875C133.726 78.255 133.601 77.715 133.351 77.255C133.101 76.795 132.761 76.445 132.331 76.205C131.911 75.955 131.446 75.83 130.936 75.83C130.426 75.83 129.961 75.95 129.541 76.19C129.121 76.43 128.786 76.78 128.536 77.24C128.286 77.7 128.161 78.24 128.161 78.86C128.161 79.49 128.286 80.04 128.536 80.51C128.786 80.97 129.121 81.325 129.541 81.575C129.961 81.815 130.426 81.935 130.936 81.935C131.446 81.935 131.911 81.815 132.331 81.575C132.761 81.325 133.101 80.97 133.351 80.51C133.601 80.04 133.726 79.495 133.726 78.875ZM145.202 74.645C145.912 74.645 146.532 74.8 147.062 75.11C147.602 75.42 148.002 75.81 148.262 76.28V74.78H149.642V83.18C149.642 83.93 149.482 84.595 149.162 85.175C148.842 85.765 148.382 86.225 147.782 86.555C147.192 86.885 146.502 87.05 145.712 87.05C144.632 87.05 143.732 86.795 143.012 86.285C142.292 85.775 141.867 85.08 141.737 84.2H143.087C143.237 84.7 143.547 85.1 144.017 85.4C144.487 85.71 145.052 85.865 145.712 85.865C146.462 85.865 147.072 85.63 147.542 85.16C148.022 84.69 148.262 84.03 148.262 83.18V81.455C147.992 81.935 147.592 82.335 147.062 82.655C146.532 82.975 145.912 83.135 145.202 83.135C144.472 83.135 143.807 82.955 143.207 82.595C142.617 82.235 142.152 81.73 141.812 81.08C141.472 80.43 141.302 79.69 141.302 78.86C141.302 78.02 141.472 77.285 141.812 76.655C142.152 76.015 142.617 75.52 143.207 75.17C143.807 74.82 144.472 74.645 145.202 74.645ZM148.262 78.875C148.262 78.255 148.137 77.715 147.887 77.255C147.637 76.795 147.297 76.445 146.867 76.205C146.447 75.955 145.982 75.83 145.472 75.83C144.962 75.83 144.497 75.95 144.077 76.19C143.657 76.43 143.322 76.78 143.072 77.24C142.822 77.7 142.697 78.24 142.697 78.86C142.697 79.49 142.822 80.04 143.072 80.51C143.322 80.97 143.657 81.325 144.077 81.575C144.497 81.815 144.962 81.935 145.472 81.935C145.982 81.935 146.447 81.815 146.867 81.575C147.297 81.325 147.637 80.97 147.887 80.51C148.137 80.04 148.262 79.495 148.262 78.875ZM153.514 76.115C153.754 75.645 154.094 75.28 154.534 75.02C154.984 74.76 155.529 74.63 156.169 74.63V76.04H155.809C154.279 76.04 153.514 76.87 153.514 78.53V83H152.149V74.78H153.514V76.115ZM165.444 78.575C165.444 78.835 165.429 79.11 165.399 79.4H158.829C158.879 80.21 159.154 80.845 159.654 81.305C160.164 81.755 160.779 81.98 161.499 81.98C162.089 81.98 162.579 81.845 162.969 81.575C163.369 81.295 163.649 80.925 163.809 80.465H165.279C165.059 81.255 164.619 81.9 163.959 82.4C163.299 82.89 162.479 83.135 161.499 83.135C160.719 83.135 160.019 82.96 159.399 82.61C158.789 82.26 158.309 81.765 157.959 81.125C157.609 80.475 157.434 79.725 157.434 78.875C157.434 78.025 157.604 77.28 157.944 76.64C158.284 76 158.759 75.51 159.369 75.17C159.989 74.82 160.699 74.645 161.499 74.645C162.279 74.645 162.969 74.815 163.569 75.155C164.169 75.495 164.629 75.965 164.949 76.565C165.279 77.155 165.444 77.825 165.444 78.575ZM164.034 78.29C164.034 77.77 163.919 77.325 163.689 76.955C163.459 76.575 163.144 76.29 162.744 76.1C162.354 75.9 161.919 75.8 161.439 75.8C160.749 75.8 160.159 76.02 159.669 76.46C159.189 76.9 158.914 77.51 158.844 78.29H164.034ZM166.936 78.86C166.936 78.02 167.106 77.285 167.446 76.655C167.786 76.015 168.251 75.52 168.841 75.17C169.441 74.82 170.106 74.645 170.836 74.645C171.556 74.645 172.181 74.8 172.711 75.11C173.241 75.42 173.636 75.81 173.896 76.28V74.78H175.276V83H173.896V81.47C173.626 81.95 173.221 82.35 172.681 82.67C172.151 82.98 171.531 83.135 170.821 83.135C170.091 83.135 169.431 82.955 168.841 82.595C168.251 82.235 167.786 81.73 167.446 81.08C167.106 80.43 166.936 79.69 166.936 78.86ZM173.896 78.875C173.896 78.255 173.771 77.715 173.521 77.255C173.271 76.795 172.931 76.445 172.501 76.205C172.081 75.955 171.616 75.83 171.106 75.83C170.596 75.83 170.131 75.95 169.711 76.19C169.291 76.43 168.956 76.78 168.706 77.24C168.456 77.7 168.331 78.24 168.331 78.86C168.331 79.49 168.456 80.04 168.706 80.51C168.956 80.97 169.291 81.325 169.711 81.575C170.131 81.815 170.596 81.935 171.106 81.935C171.616 81.935 172.081 81.815 172.501 81.575C172.931 81.325 173.271 80.97 173.521 80.51C173.771 80.04 173.896 79.495 173.896 78.875ZM179.448 75.905V80.75C179.448 81.15 179.533 81.435 179.703 81.605C179.873 81.765 180.168 81.845 180.588 81.845H181.593V83H180.363C179.603 83 179.033 82.825 178.653 82.475C178.273 82.125 178.083 81.55 178.083 80.75V75.905H177.018V74.78H178.083V72.71H179.448V74.78H181.593V75.905H179.448ZM195.146 78.575C195.146 78.835 195.131 79.11 195.101 79.4H188.531C188.581 80.21 188.856 80.845 189.356 81.305C189.866 81.755 190.481 81.98 191.201 81.98C191.791 81.98 192.281 81.845 192.671 81.575C193.071 81.295 193.351 80.925 193.511 80.465H194.981C194.761 81.255 194.321 81.9 193.661 82.4C193.001 82.89 192.181 83.135 191.201 83.135C190.421 83.135 189.721 82.96 189.101 82.61C188.491 82.26 188.011 81.765 187.661 81.125C187.311 80.475 187.136 79.725 187.136 78.875C187.136 78.025 187.306 77.28 187.646 76.64C187.986 76 188.461 75.51 189.071 75.17C189.691 74.82 190.401 74.645 191.201 74.645C191.981 74.645 192.671 74.815 193.271 75.155C193.871 75.495 194.331 75.965 194.651 76.565C194.981 77.155 195.146 77.825 195.146 78.575ZM193.736 78.29C193.736 77.77 193.621 77.325 193.391 76.955C193.161 76.575 192.846 76.29 192.446 76.1C192.056 75.9 191.621 75.8 191.141 75.8C190.451 75.8 189.861 76.02 189.371 76.46C188.891 76.9 188.616 77.51 188.546 78.29H193.736ZM201.438 83L199.488 79.94L197.613 83H196.188L198.843 78.92L196.188 74.78H197.733L199.683 77.825L201.543 74.78H202.968L200.328 78.845L202.983 83H201.438ZM205.89 76.295C206.16 75.825 206.56 75.435 207.09 75.125C207.63 74.805 208.255 74.645 208.965 74.645C209.695 74.645 210.355 74.82 210.945 75.17C211.545 75.52 212.015 76.015 212.355 76.655C212.695 77.285 212.865 78.02 212.865 78.86C212.865 79.69 212.695 80.43 212.355 81.08C212.015 81.73 211.545 82.235 210.945 82.595C210.355 82.955 209.695 83.135 208.965 83.135C208.265 83.135 207.645 82.98 207.105 82.67C206.575 82.35 206.17 81.955 205.89 81.485V86.9H204.525V74.78H205.89V76.295ZM211.47 78.86C211.47 78.24 211.345 77.7 211.095 77.24C210.845 76.78 210.505 76.43 210.075 76.19C209.655 75.95 209.19 75.83 208.68 75.83C208.18 75.83 207.715 75.955 207.285 76.205C206.865 76.445 206.525 76.8 206.265 77.27C206.015 77.73 205.89 78.265 205.89 78.875C205.89 79.495 206.015 80.04 206.265 80.51C206.525 80.97 206.865 81.325 207.285 81.575C207.715 81.815 208.18 81.935 208.68 81.935C209.19 81.935 209.655 81.815 210.075 81.575C210.505 81.325 210.845 80.97 211.095 80.51C211.345 80.04 211.47 79.49 211.47 78.86ZM222.362 78.575C222.362 78.835 222.347 79.11 222.317 79.4H215.747C215.797 80.21 216.072 80.845 216.572 81.305C217.082 81.755 217.697 81.98 218.417 81.98C219.007 81.98 219.497 81.845 219.887 81.575C220.287 81.295 220.567 80.925 220.727 80.465H222.197C221.977 81.255 221.537 81.9 220.877 82.4C220.217 82.89 219.397 83.135 218.417 83.135C217.637 83.135 216.937 82.96 216.317 82.61C215.707 82.26 215.227 81.765 214.877 81.125C214.527 80.475 214.352 79.725 214.352 78.875C214.352 78.025 214.522 77.28 214.862 76.64C215.202 76 215.677 75.51 216.287 75.17C216.907 74.82 217.617 74.645 218.417 74.645C219.197 74.645 219.887 74.815 220.487 75.155C221.087 75.495 221.547 75.965 221.867 76.565C222.197 77.155 222.362 77.825 222.362 78.575ZM220.952 78.29C220.952 77.77 220.837 77.325 220.607 76.955C220.377 76.575 220.062 76.29 219.662 76.1C219.272 75.9 218.837 75.8 218.357 75.8C217.667 75.8 217.077 76.02 216.587 76.46C216.107 76.9 215.832 77.51 215.762 78.29H220.952ZM225.729 76.115C225.969 75.645 226.309 75.28 226.749 75.02C227.199 74.76 227.744 74.63 228.384 74.63V76.04H228.024C226.494 76.04 225.729 76.87 225.729 78.53V83H224.364V74.78H225.729V76.115ZM230.864 73.445C230.604 73.445 230.384 73.355 230.204 73.175C230.024 72.995 229.934 72.775 229.934 72.515C229.934 72.255 230.024 72.035 230.204 71.855C230.384 71.675 230.604 71.585 230.864 71.585C231.114 71.585 231.324 71.675 231.494 71.855C231.674 72.035 231.764 72.255 231.764 72.515C231.764 72.775 231.674 72.995 231.494 73.175C231.324 73.355 231.114 73.445 230.864 73.445ZM231.524 74.78V83H230.159V74.78H231.524ZM241.551 78.575C241.551 78.835 241.536 79.11 241.506 79.4H234.936C234.986 80.21 235.261 80.845 235.761 81.305C236.271 81.755 236.886 81.98 237.606 81.98C238.196 81.98 238.686 81.845 239.076 81.575C239.476 81.295 239.756 80.925 239.916 80.465H241.386C241.166 81.255 240.726 81.9 240.066 82.4C239.406 82.89 238.586 83.135 237.606 83.135C236.826 83.135 236.126 82.96 235.506 82.61C234.896 82.26 234.416 81.765 234.066 81.125C233.716 80.475 233.541 79.725 233.541 78.875C233.541 78.025 233.711 77.28 234.051 76.64C234.391 76 234.866 75.51 235.476 75.17C236.096 74.82 236.806 74.645 237.606 74.645C238.386 74.645 239.076 74.815 239.676 75.155C240.276 75.495 240.736 75.965 241.056 76.565C241.386 77.155 241.551 77.825 241.551 78.575ZM240.141 78.29C240.141 77.77 240.026 77.325 239.796 76.955C239.566 76.575 239.251 76.29 238.851 76.1C238.461 75.9 238.026 75.8 237.546 75.8C236.856 75.8 236.266 76.02 235.776 76.46C235.296 76.9 235.021 77.51 234.951 78.29H240.141ZM247.558 74.63C248.558 74.63 249.368 74.935 249.988 75.545C250.608 76.145 250.918 77.015 250.918 78.155V83H249.568V78.35C249.568 77.53 249.363 76.905 248.953 76.475C248.543 76.035 247.983 75.815 247.273 75.815C246.553 75.815 245.978 76.04 245.548 76.49C245.128 76.94 244.918 77.595 244.918 78.455V83H243.553V74.78H244.918V75.95C245.188 75.53 245.553 75.205 246.013 74.975C246.483 74.745 246.998 74.63 247.558 74.63ZM252.837 78.875C252.837 78.025 253.007 77.285 253.347 76.655C253.687 76.015 254.157 75.52 254.757 75.17C255.367 74.82 256.062 74.645 256.842 74.645C257.852 74.645 258.682 74.89 259.332 75.38C259.992 75.87 260.427 76.55 260.637 77.42H259.167C259.027 76.92 258.752 76.525 258.342 76.235C257.942 75.945 257.442 75.8 256.842 75.8C256.062 75.8 255.432 76.07 254.952 76.61C254.472 77.14 254.232 77.895 254.232 78.875C254.232 79.865 254.472 80.63 254.952 81.17C255.432 81.71 256.062 81.98 256.842 81.98C257.442 81.98 257.942 81.84 258.342 81.56C258.742 81.28 259.017 80.88 259.167 80.36H260.637C260.417 81.2 259.977 81.875 259.317 82.385C258.657 82.885 257.832 83.135 256.842 83.135C256.062 83.135 255.367 82.96 254.757 82.61C254.157 82.26 253.687 81.765 253.347 81.125C253.007 80.485 252.837 79.735 252.837 78.875ZM270.159 78.575C270.159 78.835 270.144 79.11 270.114 79.4H263.544C263.594 80.21 263.869 80.845 264.369 81.305C264.879 81.755 265.494 81.98 266.214 81.98C266.804 81.98 267.294 81.845 267.684 81.575C268.084 81.295 268.364 80.925 268.524 80.465H269.994C269.774 81.255 269.334 81.9 268.674 82.4C268.014 82.89 267.194 83.135 266.214 83.135C265.434 83.135 264.734 82.96 264.114 82.61C263.504 82.26 263.024 81.765 262.674 81.125C262.324 80.475 262.149 79.725 262.149 78.875C262.149 78.025 262.319 77.28 262.659 76.64C262.999 76 263.474 75.51 264.084 75.17C264.704 74.82 265.414 74.645 266.214 74.645C266.994 74.645 267.684 74.815 268.284 75.155C268.884 75.495 269.344 75.965 269.664 76.565C269.994 77.155 270.159 77.825 270.159 78.575ZM268.749 78.29C268.749 77.77 268.634 77.325 268.404 76.955C268.174 76.575 267.859 76.29 267.459 76.1C267.069 75.9 266.634 75.8 266.154 75.8C265.464 75.8 264.874 76.02 264.384 76.46C263.904 76.9 263.629 77.51 263.559 78.29H268.749ZM272.595 83.09C272.335 83.09 272.115 83 271.935 82.82C271.755 82.64 271.665 82.42 271.665 82.16C271.665 81.9 271.755 81.68 271.935 81.5C272.115 81.32 272.335 81.23 272.595 81.23C272.845 81.23 273.055 81.32 273.225 81.5C273.405 81.68 273.495 81.9 273.495 82.16C273.495 82.42 273.405 82.64 273.225 82.82C273.055 83 272.845 83.09 272.595 83.09ZM284.974 72.545V80.27C284.974 81.13 284.709 81.82 284.179 82.34C283.649 82.85 282.949 83.105 282.079 83.105C281.199 83.105 280.494 82.845 279.964 82.325C279.434 81.795 279.169 81.075 279.169 80.165H280.534C280.544 80.675 280.674 81.09 280.924 81.41C281.184 81.73 281.569 81.89 282.079 81.89C282.589 81.89 282.969 81.74 283.219 81.44C283.469 81.13 283.594 80.74 283.594 80.27V72.545H284.974ZM287.353 78.86C287.353 78.02 287.523 77.285 287.863 76.655C288.203 76.015 288.668 75.52 289.258 75.17C289.858 74.82 290.523 74.645 291.253 74.645C291.973 74.645 292.598 74.8 293.128 75.11C293.658 75.42 294.053 75.81 294.313 76.28V74.78H295.693V83H294.313V81.47C294.043 81.95 293.638 82.35 293.098 82.67C292.568 82.98 291.948 83.135 291.238 83.135C290.508 83.135 289.848 82.955 289.258 82.595C288.668 82.235 288.203 81.73 287.863 81.08C287.523 80.43 287.353 79.69 287.353 78.86ZM294.313 78.875C294.313 78.255 294.188 77.715 293.938 77.255C293.688 76.795 293.348 76.445 292.918 76.205C292.498 75.955 292.033 75.83 291.523 75.83C291.013 75.83 290.548 75.95 290.128 76.19C289.708 76.43 289.373 76.78 289.123 77.24C288.873 77.7 288.748 78.24 288.748 78.86C288.748 79.49 288.873 80.04 289.123 80.51C289.373 80.97 289.708 81.325 290.128 81.575C290.548 81.815 291.013 81.935 291.523 81.935C292.033 81.935 292.498 81.815 292.918 81.575C293.348 81.325 293.688 80.97 293.938 80.51C294.188 80.04 294.313 79.495 294.313 78.875ZM299.565 76.295C299.835 75.825 300.235 75.435 300.765 75.125C301.305 74.805 301.93 74.645 302.64 74.645C303.37 74.645 304.03 74.82 304.62 75.17C305.22 75.52 305.69 76.015 306.03 76.655C306.37 77.285 306.54 78.02 306.54 78.86C306.54 79.69 306.37 80.43 306.03 81.08C305.69 81.73 305.22 82.235 304.62 82.595C304.03 82.955 303.37 83.135 302.64 83.135C301.94 83.135 301.32 82.98 300.78 82.67C300.25 82.35 299.845 81.955 299.565 81.485V86.9H298.2V74.78H299.565V76.295ZM305.145 78.86C305.145 78.24 305.02 77.7 304.77 77.24C304.52 76.78 304.18 76.43 303.75 76.19C303.33 75.95 302.865 75.83 302.355 75.83C301.855 75.83 301.39 75.955 300.96 76.205C300.54 76.445 300.2 76.8 299.94 77.27C299.69 77.73 299.565 78.265 299.565 78.875C299.565 79.495 299.69 80.04 299.94 80.51C300.2 80.97 300.54 81.325 300.96 81.575C301.39 81.815 301.855 81.935 302.355 81.935C302.865 81.935 303.33 81.815 303.75 81.575C304.18 81.325 304.52 80.97 304.77 80.51C305.02 80.04 305.145 79.49 305.145 78.86ZM309.901 76.115C310.141 75.645 310.481 75.28 310.921 75.02C311.371 74.76 311.916 74.63 312.556 74.63V76.04H312.196C310.666 76.04 309.901 76.87 309.901 78.53V83H308.536V74.78H309.901V76.115ZM315.037 73.445C314.777 73.445 314.557 73.355 314.377 73.175C314.197 72.995 314.107 72.775 314.107 72.515C314.107 72.255 314.197 72.035 314.377 71.855C314.557 71.675 314.777 71.585 315.037 71.585C315.287 71.585 315.497 71.675 315.667 71.855C315.847 72.035 315.937 72.255 315.937 72.515C315.937 72.775 315.847 72.995 315.667 73.175C315.497 73.355 315.287 73.445 315.037 73.445ZM315.697 74.78V83H314.332V74.78H315.697ZM333.028 72.62V83H331.663V75.26L328.213 83H327.253L323.788 75.245V83H322.423V72.62H323.893L327.733 81.2L331.573 72.62H333.028ZM343.043 78.575C343.043 78.835 343.028 79.11 342.998 79.4H336.428C336.478 80.21 336.753 80.845 337.253 81.305C337.763 81.755 338.378 81.98 339.098 81.98C339.688 81.98 340.178 81.845 340.568 81.575C340.968 81.295 341.248 80.925 341.408 80.465H342.878C342.658 81.255 342.218 81.9 341.558 82.4C340.898 82.89 340.078 83.135 339.098 83.135C338.318 83.135 337.618 82.96 336.998 82.61C336.388 82.26 335.908 81.765 335.558 81.125C335.208 80.475 335.033 79.725 335.033 78.875C335.033 78.025 335.203 77.28 335.543 76.64C335.883 76 336.358 75.51 336.968 75.17C337.588 74.82 338.298 74.645 339.098 74.645C339.878 74.645 340.568 74.815 341.168 75.155C341.768 75.495 342.228 75.965 342.548 76.565C342.878 77.155 343.043 77.825 343.043 78.575ZM341.633 78.29C341.633 77.77 341.518 77.325 341.288 76.955C341.058 76.575 340.743 76.29 340.343 76.1C339.953 75.9 339.518 75.8 339.038 75.8C338.348 75.8 337.758 76.02 337.268 76.46C336.788 76.9 336.513 77.51 336.443 78.29H341.633ZM347.954 83.135C347.324 83.135 346.759 83.03 346.259 82.82C345.759 82.6 345.364 82.3 345.074 81.92C344.784 81.53 344.624 81.085 344.594 80.585H346.004C346.044 80.995 346.234 81.33 346.574 81.59C346.924 81.85 347.379 81.98 347.939 81.98C348.459 81.98 348.869 81.865 349.169 81.635C349.469 81.405 349.619 81.115 349.619 80.765C349.619 80.405 349.459 80.14 349.139 79.97C348.819 79.79 348.324 79.615 347.654 79.445C347.044 79.285 346.544 79.125 346.154 78.965C345.774 78.795 345.444 78.55 345.164 78.23C344.894 77.9 344.759 77.47 344.759 76.94C344.759 76.52 344.884 76.135 345.134 75.785C345.384 75.435 345.739 75.16 346.199 74.96C346.659 74.75 347.184 74.645 347.774 74.645C348.684 74.645 349.419 74.875 349.979 75.335C350.539 75.795 350.839 76.425 350.879 77.225H349.514C349.484 76.795 349.309 76.45 348.989 76.19C348.679 75.93 348.259 75.8 347.729 75.8C347.239 75.8 346.849 75.905 346.559 76.115C346.269 76.325 346.124 76.6 346.124 76.94C346.124 77.21 346.209 77.435 346.379 77.615C346.559 77.785 346.779 77.925 347.039 78.035C347.309 78.135 347.679 78.25 348.149 78.38C348.739 78.54 349.219 78.7 349.589 78.86C349.959 79.01 350.274 79.24 350.534 79.55C350.804 79.86 350.944 80.265 350.954 80.765C350.954 81.215 350.829 81.62 350.579 81.98C350.329 82.34 349.974 82.625 349.514 82.835C349.064 83.035 348.544 83.135 347.954 83.135ZM355.991 83.135C355.361 83.135 354.796 83.03 354.296 82.82C353.796 82.6 353.401 82.3 353.111 81.92C352.821 81.53 352.661 81.085 352.631 80.585H354.041C354.081 80.995 354.271 81.33 354.611 81.59C354.961 81.85 355.416 81.98 355.976 81.98C356.496 81.98 356.906 81.865 357.206 81.635C357.506 81.405 357.656 81.115 357.656 80.765C357.656 80.405 357.496 80.14 357.176 79.97C356.856 79.79 356.361 79.615 355.691 79.445C355.081 79.285 354.581 79.125 354.191 78.965C353.811 78.795 353.481 78.55 353.201 78.23C352.931 77.9 352.796 77.47 352.796 76.94C352.796 76.52 352.921 76.135 353.171 75.785C353.421 75.435 353.776 75.16 354.236 74.96C354.696 74.75 355.221 74.645 355.811 74.645C356.721 74.645 357.456 74.875 358.016 75.335C358.576 75.795 358.876 76.425 358.916 77.225H357.551C357.521 76.795 357.346 76.45 357.026 76.19C356.716 75.93 356.296 75.8 355.766 75.8C355.276 75.8 354.886 75.905 354.596 76.115C354.306 76.325 354.161 76.6 354.161 76.94C354.161 77.21 354.246 77.435 354.416 77.615C354.596 77.785 354.816 77.925 355.076 78.035C355.346 78.135 355.716 78.25 356.186 78.38C356.776 78.54 357.256 78.7 357.626 78.86C357.996 79.01 358.311 79.24 358.571 79.55C358.841 79.86 358.981 80.265 358.991 80.765C358.991 81.215 358.866 81.62 358.616 81.98C358.366 82.34 358.011 82.625 357.551 82.835C357.101 83.035 356.581 83.135 355.991 83.135ZM368.618 78.575C368.618 78.835 368.603 79.11 368.573 79.4H362.003C362.053 80.21 362.328 80.845 362.828 81.305C363.338 81.755 363.953 81.98 364.673 81.98C365.263 81.98 365.753 81.845 366.143 81.575C366.543 81.295 366.823 80.925 366.983 80.465H368.453C368.233 81.255 367.793 81.9 367.133 82.4C366.473 82.89 365.653 83.135 364.673 83.135C363.893 83.135 363.193 82.96 362.573 82.61C361.963 82.26 361.483 81.765 361.133 81.125C360.783 80.475 360.608 79.725 360.608 78.875C360.608 78.025 360.778 77.28 361.118 76.64C361.458 76 361.933 75.51 362.543 75.17C363.163 74.82 363.873 74.645 364.673 74.645C365.453 74.645 366.143 74.815 366.743 75.155C367.343 75.495 367.803 75.965 368.123 76.565C368.453 77.155 368.618 77.825 368.618 78.575ZM367.208 78.29C367.208 77.77 367.093 77.325 366.863 76.955C366.633 76.575 366.318 76.29 365.918 76.1C365.528 75.9 365.093 75.8 364.613 75.8C363.923 75.8 363.333 76.02 362.843 76.46C362.363 76.9 362.088 77.51 362.018 78.29H367.208ZM374.625 74.63C375.625 74.63 376.435 74.935 377.055 75.545C377.675 76.145 377.985 77.015 377.985 78.155V83H376.635V78.35C376.635 77.53 376.43 76.905 376.02 76.475C375.61 76.035 375.05 75.815 374.34 75.815C373.62 75.815 373.045 76.04 372.615 76.49C372.195 76.94 371.985 77.595 371.985 78.455V83H370.62V74.78H371.985V75.95C372.255 75.53 372.62 75.205 373.08 74.975C373.55 74.745 374.065 74.63 374.625 74.63ZM383.805 74.645C384.515 74.645 385.135 74.8 385.665 75.11C386.205 75.42 386.605 75.81 386.865 76.28V74.78H388.245V83.18C388.245 83.93 388.085 84.595 387.765 85.175C387.445 85.765 386.985 86.225 386.385 86.555C385.795 86.885 385.105 87.05 384.315 87.05C383.235 87.05 382.335 86.795 381.615 86.285C380.895 85.775 380.47 85.08 380.34 84.2H381.69C381.84 84.7 382.15 85.1 382.62 85.4C383.09 85.71 383.655 85.865 384.315 85.865C385.065 85.865 385.675 85.63 386.145 85.16C386.625 84.69 386.865 84.03 386.865 83.18V81.455C386.595 81.935 386.195 82.335 385.665 82.655C385.135 82.975 384.515 83.135 383.805 83.135C383.075 83.135 382.41 82.955 381.81 82.595C381.22 82.235 380.755 81.73 380.415 81.08C380.075 80.43 379.905 79.69 379.905 78.86C379.905 78.02 380.075 77.285 380.415 76.655C380.755 76.015 381.22 75.52 381.81 75.17C382.41 74.82 383.075 74.645 383.805 74.645ZM386.865 78.875C386.865 78.255 386.74 77.715 386.49 77.255C386.24 76.795 385.9 76.445 385.47 76.205C385.05 75.955 384.585 75.83 384.075 75.83C383.565 75.83 383.1 75.95 382.68 76.19C382.26 76.43 381.925 76.78 381.675 77.24C381.425 77.7 381.3 78.24 381.3 78.86C381.3 79.49 381.425 80.04 381.675 80.51C381.925 80.97 382.26 81.325 382.68 81.575C383.1 81.815 383.565 81.935 384.075 81.935C384.585 81.935 385.05 81.815 385.47 81.575C385.9 81.325 386.24 80.97 386.49 80.51C386.74 80.04 386.865 79.495 386.865 78.875ZM398.251 78.575C398.251 78.835 398.236 79.11 398.206 79.4H391.636C391.686 80.21 391.961 80.845 392.461 81.305C392.971 81.755 393.586 81.98 394.306 81.98C394.896 81.98 395.386 81.845 395.776 81.575C396.176 81.295 396.456 80.925 396.616 80.465H398.086C397.866 81.255 397.426 81.9 396.766 82.4C396.106 82.89 395.286 83.135 394.306 83.135C393.526 83.135 392.826 82.96 392.206 82.61C391.596 82.26 391.116 81.765 390.766 81.125C390.416 80.475 390.241 79.725 390.241 78.875C390.241 78.025 390.411 77.28 390.751 76.64C391.091 76 391.566 75.51 392.176 75.17C392.796 74.82 393.506 74.645 394.306 74.645C395.086 74.645 395.776 74.815 396.376 75.155C396.976 75.495 397.436 75.965 397.756 76.565C398.086 77.155 398.251 77.825 398.251 78.575ZM396.841 78.29C396.841 77.77 396.726 77.325 396.496 76.955C396.266 76.575 395.951 76.29 395.551 76.1C395.161 75.9 394.726 75.8 394.246 75.8C393.556 75.8 392.966 76.02 392.476 76.46C391.996 76.9 391.721 77.51 391.651 78.29H396.841ZM401.618 76.115C401.858 75.645 402.198 75.28 402.638 75.02C403.088 74.76 403.633 74.63 404.273 74.63V76.04H403.913C402.383 76.04 401.618 76.87 401.618 78.53V83H400.253V74.78H401.618V76.115ZM411.613 76.295C411.883 75.825 412.283 75.435 412.813 75.125C413.353 74.805 413.978 74.645 414.688 74.645C415.418 74.645 416.078 74.82 416.668 75.17C417.268 75.52 417.738 76.015 418.078 76.655C418.418 77.285 418.588 78.02 418.588 78.86C418.588 79.69 418.418 80.43 418.078 81.08C417.738 81.73 417.268 82.235 416.668 82.595C416.078 82.955 415.418 83.135 414.688 83.135C413.988 83.135 413.368 82.98 412.828 82.67C412.298 82.35 411.893 81.955 411.613 81.485V86.9H410.248V74.78H411.613V76.295ZM417.193 78.86C417.193 78.24 417.068 77.7 416.818 77.24C416.568 76.78 416.228 76.43 415.798 76.19C415.378 75.95 414.913 75.83 414.403 75.83C413.903 75.83 413.438 75.955 413.008 76.205C412.588 76.445 412.248 76.8 411.988 77.27C411.738 77.73 411.613 78.265 411.613 78.875C411.613 79.495 411.738 80.04 411.988 80.51C412.248 80.97 412.588 81.325 413.008 81.575C413.438 81.815 413.903 81.935 414.403 81.935C414.913 81.935 415.378 81.815 415.798 81.575C416.228 81.325 416.568 80.97 416.818 80.51C417.068 80.04 417.193 79.49 417.193 78.86ZM421.95 76.115C422.19 75.645 422.53 75.28 422.97 75.02C423.42 74.76 423.965 74.63 424.605 74.63V76.04H424.245C422.715 76.04 421.95 76.87 421.95 78.53V83H420.585V74.78H421.95V76.115ZM429.965 83.135C429.195 83.135 428.495 82.96 427.865 82.61C427.245 82.26 426.755 81.765 426.395 81.125C426.045 80.475 425.87 79.725 425.87 78.875C425.87 78.035 426.05 77.295 426.41 76.655C426.78 76.005 427.28 75.51 427.91 75.17C428.54 74.82 429.245 74.645 430.025 74.645C430.805 74.645 431.51 74.82 432.14 75.17C432.77 75.51 433.265 76 433.625 76.64C433.995 77.28 434.18 78.025 434.18 78.875C434.18 79.725 433.99 80.475 433.61 81.125C433.24 81.765 432.735 82.26 432.095 82.61C431.455 82.96 430.745 83.135 429.965 83.135ZM429.965 81.935C430.455 81.935 430.915 81.82 431.345 81.59C431.775 81.36 432.12 81.015 432.38 80.555C432.65 80.095 432.785 79.535 432.785 78.875C432.785 78.215 432.655 77.655 432.395 77.195C432.135 76.735 431.795 76.395 431.375 76.175C430.955 75.945 430.5 75.83 430.01 75.83C429.51 75.83 429.05 75.945 428.63 76.175C428.22 76.395 427.89 76.735 427.64 77.195C427.39 77.655 427.265 78.215 427.265 78.875C427.265 79.545 427.385 80.11 427.625 80.57C427.875 81.03 428.205 81.375 428.615 81.605C429.025 81.825 429.475 81.935 429.965 81.935ZM439.235 81.74L441.785 74.78H443.24L440.015 83H438.425L435.2 74.78H436.67L439.235 81.74ZM445.488 73.445C445.228 73.445 445.008 73.355 444.828 73.175C444.648 72.995 444.558 72.775 444.558 72.515C444.558 72.255 444.648 72.035 444.828 71.855C445.008 71.675 445.228 71.585 445.488 71.585C445.738 71.585 445.948 71.675 446.118 71.855C446.298 72.035 446.388 72.255 446.388 72.515C446.388 72.775 446.298 72.995 446.118 73.175C445.948 73.355 445.738 73.445 445.488 73.445ZM446.148 74.78V83H444.783V74.78H446.148ZM448.165 78.86C448.165 78.02 448.335 77.285 448.675 76.655C449.015 76.015 449.48 75.52 450.07 75.17C450.67 74.82 451.34 74.645 452.08 74.645C452.72 74.645 453.315 74.795 453.865 75.095C454.415 75.385 454.835 75.77 455.125 76.25V71.9H456.505V83H455.125V81.455C454.855 81.945 454.455 82.35 453.925 82.67C453.395 82.98 452.775 83.135 452.065 83.135C451.335 83.135 450.67 82.955 450.07 82.595C449.48 82.235 449.015 81.73 448.675 81.08C448.335 80.43 448.165 79.69 448.165 78.86ZM455.125 78.875C455.125 78.255 455 77.715 454.75 77.255C454.5 76.795 454.16 76.445 453.73 76.205C453.31 75.955 452.845 75.83 452.335 75.83C451.825 75.83 451.36 75.95 450.94 76.19C450.52 76.43 450.185 76.78 449.935 77.24C449.685 77.7 449.56 78.24 449.56 78.86C449.56 79.49 449.685 80.04 449.935 80.51C450.185 80.97 450.52 81.325 450.94 81.575C451.36 81.815 451.825 81.935 452.335 81.935C452.845 81.935 453.31 81.815 453.73 81.575C454.16 81.325 454.5 80.97 454.75 80.51C455 80.04 455.125 79.495 455.125 78.875ZM466.511 78.575C466.511 78.835 466.496 79.11 466.466 79.4H459.896C459.946 80.21 460.221 80.845 460.721 81.305C461.231 81.755 461.846 81.98 462.566 81.98C463.156 81.98 463.646 81.845 464.036 81.575C464.436 81.295 464.716 80.925 464.876 80.465H466.346C466.126 81.255 465.686 81.9 465.026 82.4C464.366 82.89 463.546 83.135 462.566 83.135C461.786 83.135 461.086 82.96 460.466 82.61C459.856 82.26 459.376 81.765 459.026 81.125C458.676 80.475 458.501 79.725 458.501 78.875C458.501 78.025 458.671 77.28 459.011 76.64C459.351 76 459.826 75.51 460.436 75.17C461.056 74.82 461.766 74.645 462.566 74.645C463.346 74.645 464.036 74.815 464.636 75.155C465.236 75.495 465.696 75.965 466.016 76.565C466.346 77.155 466.511 77.825 466.511 78.575ZM465.101 78.29C465.101 77.77 464.986 77.325 464.756 76.955C464.526 76.575 464.211 76.29 463.811 76.1C463.421 75.9 462.986 75.8 462.506 75.8C461.816 75.8 461.226 76.02 460.736 76.46C460.256 76.9 459.981 77.51 459.911 78.29H465.101ZM471.423 83.135C470.793 83.135 470.228 83.03 469.728 82.82C469.228 82.6 468.833 82.3 468.543 81.92C468.253 81.53 468.093 81.085 468.063 80.585H469.473C469.513 80.995 469.703 81.33 470.043 81.59C470.393 81.85 470.848 81.98 471.408 81.98C471.928 81.98 472.338 81.865 472.638 81.635C472.938 81.405 473.088 81.115 473.088 80.765C473.088 80.405 472.928 80.14 472.608 79.97C472.288 79.79 471.793 79.615 471.123 79.445C470.513 79.285 470.013 79.125 469.623 78.965C469.243 78.795 468.913 78.55 468.633 78.23C468.363 77.9 468.228 77.47 468.228 76.94C468.228 76.52 468.353 76.135 468.603 75.785C468.853 75.435 469.208 75.16 469.668 74.96C470.128 74.75 470.653 74.645 471.243 74.645C472.153 74.645 472.888 74.875 473.448 75.335C474.008 75.795 474.308 76.425 474.348 77.225H472.983C472.953 76.795 472.778 76.45 472.458 76.19C472.148 75.93 471.728 75.8 471.198 75.8C470.708 75.8 470.318 75.905 470.028 76.115C469.738 76.325 469.593 76.6 469.593 76.94C469.593 77.21 469.678 77.435 469.848 77.615C470.028 77.785 470.248 77.925 470.508 78.035C470.778 78.135 471.148 78.25 471.618 78.38C472.208 78.54 472.688 78.7 473.058 78.86C473.428 79.01 473.743 79.24 474.003 79.55C474.273 79.86 474.413 80.265 474.423 80.765C474.423 81.215 474.298 81.62 474.048 81.98C473.798 82.34 473.443 82.625 472.983 82.835C472.533 83.035 472.013 83.135 471.423 83.135ZM482.114 76.295C482.384 75.825 482.784 75.435 483.314 75.125C483.854 74.805 484.479 74.645 485.189 74.645C485.919 74.645 486.579 74.82 487.169 75.17C487.769 75.52 488.239 76.015 488.579 76.655C488.919 77.285 489.089 78.02 489.089 78.86C489.089 79.69 488.919 80.43 488.579 81.08C488.239 81.73 487.769 82.235 487.169 82.595C486.579 82.955 485.919 83.135 485.189 83.135C484.489 83.135 483.869 82.98 483.329 82.67C482.799 82.35 482.394 81.955 482.114 81.485V86.9H480.749V74.78H482.114V76.295ZM487.694 78.86C487.694 78.24 487.569 77.7 487.319 77.24C487.069 76.78 486.729 76.43 486.299 76.19C485.879 75.95 485.414 75.83 484.904 75.83C484.404 75.83 483.939 75.955 483.509 76.205C483.089 76.445 482.749 76.8 482.489 77.27C482.239 77.73 482.114 78.265 482.114 78.875C482.114 79.495 482.239 80.04 482.489 80.51C482.749 80.97 483.089 81.325 483.509 81.575C483.939 81.815 484.404 81.935 484.904 81.935C485.414 81.935 485.879 81.815 486.299 81.575C486.729 81.325 487.069 80.97 487.319 80.51C487.569 80.04 487.694 79.49 487.694 78.86ZM498.586 78.575C498.586 78.835 498.571 79.11 498.541 79.4H491.971C492.021 80.21 492.296 80.845 492.796 81.305C493.306 81.755 493.921 81.98 494.641 81.98C495.231 81.98 495.721 81.845 496.111 81.575C496.511 81.295 496.791 80.925 496.951 80.465H498.421C498.201 81.255 497.761 81.9 497.101 82.4C496.441 82.89 495.621 83.135 494.641 83.135C493.861 83.135 493.161 82.96 492.541 82.61C491.931 82.26 491.451 81.765 491.101 81.125C490.751 80.475 490.576 79.725 490.576 78.875C490.576 78.025 490.746 77.28 491.086 76.64C491.426 76 491.901 75.51 492.511 75.17C493.131 74.82 493.841 74.645 494.641 74.645C495.421 74.645 496.111 74.815 496.711 75.155C497.311 75.495 497.771 75.965 498.091 76.565C498.421 77.155 498.586 77.825 498.586 78.575ZM497.176 78.29C497.176 77.77 497.061 77.325 496.831 76.955C496.601 76.575 496.286 76.29 495.886 76.1C495.496 75.9 495.061 75.8 494.581 75.8C493.891 75.8 493.301 76.02 492.811 76.46C492.331 76.9 492.056 77.51 491.986 78.29H497.176ZM501.952 76.115C502.192 75.645 502.532 75.28 502.972 75.02C503.422 74.76 503.967 74.63 504.607 74.63V76.04H504.247C502.717 76.04 501.952 76.87 501.952 78.53V83H500.587V74.78H501.952V76.115ZM509.728 75.905H508.003V83H506.638V75.905H505.573V74.78H506.638V74.195C506.638 73.275 506.873 72.605 507.343 72.185C507.823 71.755 508.588 71.54 509.638 71.54V72.68C509.038 72.68 508.613 72.8 508.363 73.04C508.123 73.27 508.003 73.655 508.003 74.195V74.78H509.728V75.905ZM519.02 78.575C519.02 78.835 519.005 79.11 518.975 79.4H512.405C512.455 80.21 512.73 80.845 513.23 81.305C513.74 81.755 514.355 81.98 515.075 81.98C515.665 81.98 516.155 81.845 516.545 81.575C516.945 81.295 517.225 80.925 517.385 80.465H518.855C518.635 81.255 518.195 81.9 517.535 82.4C516.875 82.89 516.055 83.135 515.075 83.135C514.295 83.135 513.595 82.96 512.975 82.61C512.365 82.26 511.885 81.765 511.535 81.125C511.185 80.475 511.01 79.725 511.01 78.875C511.01 78.025 511.18 77.28 511.52 76.64C511.86 76 512.335 75.51 512.945 75.17C513.565 74.82 514.275 74.645 515.075 74.645C515.855 74.645 516.545 74.815 517.145 75.155C517.745 75.495 518.205 75.965 518.525 76.565C518.855 77.155 519.02 77.825 519.02 78.575ZM517.61 78.29C517.61 77.77 517.495 77.325 517.265 76.955C517.035 76.575 516.72 76.29 516.32 76.1C515.93 75.9 515.495 75.8 515.015 75.8C514.325 75.8 513.735 76.02 513.245 76.46C512.765 76.9 512.49 77.51 512.42 78.29H517.61ZM520.511 78.875C520.511 78.025 520.681 77.285 521.021 76.655C521.361 76.015 521.831 75.52 522.431 75.17C523.041 74.82 523.736 74.645 524.516 74.645C525.526 74.645 526.356 74.89 527.006 75.38C527.666 75.87 528.101 76.55 528.311 77.42H526.841C526.701 76.92 526.426 76.525 526.016 76.235C525.616 75.945 525.116 75.8 524.516 75.8C523.736 75.8 523.106 76.07 522.626 76.61C522.146 77.14 521.906 77.895 521.906 78.875C521.906 79.865 522.146 80.63 522.626 81.17C523.106 81.71 523.736 81.98 524.516 81.98C525.116 81.98 525.616 81.84 526.016 81.56C526.416 81.28 526.691 80.88 526.841 80.36H528.311C528.091 81.2 527.651 81.875 526.991 82.385C526.331 82.885 525.506 83.135 524.516 83.135C523.736 83.135 523.041 82.96 522.431 82.61C521.831 82.26 521.361 81.765 521.021 81.125C520.681 80.485 520.511 79.735 520.511 78.875ZM531.998 75.905V80.75C531.998 81.15 532.083 81.435 532.253 81.605C532.423 81.765 532.718 81.845 533.138 81.845H534.143V83H532.913C532.153 83 531.583 82.825 531.203 82.475C530.823 82.125 530.633 81.55 530.633 80.75V75.905H529.568V74.78H530.633V72.71H531.998V74.78H534.143V75.905H531.998ZM543.541 75.905H541.816V83H540.451V75.905H539.386V74.78H540.451V74.195C540.451 73.275 540.686 72.605 541.156 72.185C541.636 71.755 542.401 71.54 543.451 71.54V72.68C542.851 72.68 542.426 72.8 542.176 73.04C541.936 73.27 541.816 73.655 541.816 74.195V74.78H543.541V75.905ZM552.832 78.575C552.832 78.835 552.817 79.11 552.787 79.4H546.217C546.267 80.21 546.542 80.845 547.042 81.305C547.552 81.755 548.167 81.98 548.887 81.98C549.477 81.98 549.967 81.845 550.357 81.575C550.757 81.295 551.037 80.925 551.197 80.465H552.667C552.447 81.255 552.007 81.9 551.347 82.4C550.687 82.89 549.867 83.135 548.887 83.135C548.107 83.135 547.407 82.96 546.787 82.61C546.177 82.26 545.697 81.765 545.347 81.125C544.997 80.475 544.822 79.725 544.822 78.875C544.822 78.025 544.992 77.28 545.332 76.64C545.672 76 546.147 75.51 546.757 75.17C547.377 74.82 548.087 74.645 548.887 74.645C549.667 74.645 550.357 74.815 550.957 75.155C551.557 75.495 552.017 75.965 552.337 76.565C552.667 77.155 552.832 77.825 552.832 78.575ZM551.422 78.29C551.422 77.77 551.307 77.325 551.077 76.955C550.847 76.575 550.532 76.29 550.132 76.1C549.742 75.9 549.307 75.8 548.827 75.8C548.137 75.8 547.547 76.02 547.057 76.46C546.577 76.9 546.302 77.51 546.232 78.29H551.422ZM554.324 78.86C554.324 78.02 554.494 77.285 554.834 76.655C555.174 76.015 555.639 75.52 556.229 75.17C556.829 74.82 557.494 74.645 558.224 74.645C558.944 74.645 559.569 74.8 560.099 75.11C560.629 75.42 561.024 75.81 561.284 76.28V74.78H562.664V83H561.284V81.47C561.014 81.95 560.609 82.35 560.069 82.67C559.539 82.98 558.919 83.135 558.209 83.135C557.479 83.135 556.819 82.955 556.229 82.595C555.639 82.235 555.174 81.73 554.834 81.08C554.494 80.43 554.324 79.69 554.324 78.86ZM561.284 78.875C561.284 78.255 561.159 77.715 560.909 77.255C560.659 76.795 560.319 76.445 559.889 76.205C559.469 75.955 559.004 75.83 558.494 75.83C557.984 75.83 557.519 75.95 557.099 76.19C556.679 76.43 556.344 76.78 556.094 77.24C555.844 77.7 555.719 78.24 555.719 78.86C555.719 79.49 555.844 80.04 556.094 80.51C556.344 80.97 556.679 81.325 557.099 81.575C557.519 81.815 557.984 81.935 558.494 81.935C559.004 81.935 559.469 81.815 559.889 81.575C560.319 81.325 560.659 80.97 560.909 80.51C561.159 80.04 561.284 79.495 561.284 78.875ZM566.836 75.905V80.75C566.836 81.15 566.921 81.435 567.091 81.605C567.261 81.765 567.556 81.845 567.976 81.845H568.981V83H567.751C566.991 83 566.421 82.825 566.041 82.475C565.661 82.125 565.471 81.55 565.471 80.75V75.905H564.406V74.78H565.471V72.71H566.836V74.78H568.981V75.905H566.836ZM578.125 74.78V83H576.76V81.785C576.5 82.205 576.135 82.535 575.665 82.775C575.205 83.005 574.695 83.12 574.135 83.12C573.495 83.12 572.92 82.99 572.41 82.73C571.9 82.46 571.495 82.06 571.195 81.53C570.905 81 570.76 80.355 570.76 79.595V74.78H572.11V79.415C572.11 80.225 572.315 80.85 572.725 81.29C573.135 81.72 573.695 81.935 574.405 81.935C575.135 81.935 575.71 81.71 576.13 81.26C576.55 80.81 576.76 80.155 576.76 79.295V74.78H578.125ZM581.994 76.115C582.234 75.645 582.574 75.28 583.014 75.02C583.464 74.76 584.009 74.63 584.649 74.63V76.04H584.289C582.759 76.04 581.994 76.87 581.994 78.53V83H580.629V74.78H581.994V76.115ZM593.925 78.575C593.925 78.835 593.91 79.11 593.88 79.4H587.31C587.36 80.21 587.635 80.845 588.135 81.305C588.645 81.755 589.26 81.98 589.98 81.98C590.57 81.98 591.06 81.845 591.45 81.575C591.85 81.295 592.13 80.925 592.29 80.465H593.76C593.54 81.255 593.1 81.9 592.44 82.4C591.78 82.89 590.96 83.135 589.98 83.135C589.2 83.135 588.5 82.96 587.88 82.61C587.27 82.26 586.79 81.765 586.44 81.125C586.09 80.475 585.915 79.725 585.915 78.875C585.915 78.025 586.085 77.28 586.425 76.64C586.765 76 587.24 75.51 587.85 75.17C588.47 74.82 589.18 74.645 589.98 74.645C590.76 74.645 591.45 74.815 592.05 75.155C592.65 75.495 593.11 75.965 593.43 76.565C593.76 77.155 593.925 77.825 593.925 78.575ZM592.515 78.29C592.515 77.77 592.4 77.325 592.17 76.955C591.94 76.575 591.625 76.29 591.225 76.1C590.835 75.9 590.4 75.8 589.92 75.8C589.23 75.8 588.64 76.02 588.15 76.46C587.67 76.9 587.395 77.51 587.325 78.29H592.515ZM598.837 83.135C598.207 83.135 597.642 83.03 597.142 82.82C596.642 82.6 596.247 82.3 595.957 81.92C595.667 81.53 595.507 81.085 595.477 80.585H596.887C596.927 80.995 597.117 81.33 597.457 81.59C597.807 81.85 598.262 81.98 598.822 81.98C599.342 81.98 599.752 81.865 600.052 81.635C600.352 81.405 600.502 81.115 600.502 80.765C600.502 80.405 600.342 80.14 600.022 79.97C599.702 79.79 599.207 79.615 598.537 79.445C597.927 79.285 597.427 79.125 597.037 78.965C596.657 78.795 596.327 78.55 596.047 78.23C595.777 77.9 595.642 77.47 595.642 76.94C595.642 76.52 595.767 76.135 596.017 75.785C596.267 75.435 596.622 75.16 597.082 74.96C597.542 74.75 598.067 74.645 598.657 74.645C599.567 74.645 600.302 74.875 600.862 75.335C601.422 75.795 601.722 76.425 601.762 77.225H600.397C600.367 76.795 600.192 76.45 599.872 76.19C599.562 75.93 599.142 75.8 598.612 75.8C598.122 75.8 597.732 75.905 597.442 76.115C597.152 76.325 597.007 76.6 597.007 76.94C597.007 77.21 597.092 77.435 597.262 77.615C597.442 77.785 597.662 77.925 597.922 78.035C598.192 78.135 598.562 78.25 599.032 78.38C599.622 78.54 600.102 78.7 600.472 78.86C600.842 79.01 601.157 79.24 601.417 79.55C601.687 79.86 601.827 80.265 601.837 80.765C601.837 81.215 601.712 81.62 601.462 81.98C601.212 82.34 600.857 82.625 600.397 82.835C599.947 83.035 599.427 83.135 598.837 83.135ZM190.395 103.875C190.395 103.025 190.565 102.285 190.905 101.655C191.245 101.015 191.715 100.52 192.315 100.17C192.925 99.82 193.62 99.645 194.4 99.645C195.41 99.645 196.24 99.89 196.89 100.38C197.55 100.87 197.985 101.55 198.195 102.42H196.725C196.585 101.92 196.31 101.525 195.9 101.235C195.5 100.945 195 100.8 194.4 100.8C193.62 100.8 192.99 101.07 192.51 101.61C192.03 102.14 191.79 102.895 191.79 103.875C191.79 104.865 192.03 105.63 192.51 106.17C192.99 106.71 193.62 106.98 194.4 106.98C195 106.98 195.5 106.84 195.9 106.56C196.3 106.28 196.575 105.88 196.725 105.36H198.195C197.975 106.2 197.535 106.875 196.875 107.385C196.215 107.885 195.39 108.135 194.4 108.135C193.62 108.135 192.925 107.96 192.315 107.61C191.715 107.26 191.245 106.765 190.905 106.125C190.565 105.485 190.395 104.735 190.395 103.875ZM203.801 108.135C203.031 108.135 202.331 107.96 201.701 107.61C201.081 107.26 200.591 106.765 200.231 106.125C199.881 105.475 199.706 104.725 199.706 103.875C199.706 103.035 199.886 102.295 200.246 101.655C200.616 101.005 201.116 100.51 201.746 100.17C202.376 99.82 203.081 99.645 203.861 99.645C204.641 99.645 205.346 99.82 205.976 100.17C206.606 100.51 207.101 101 207.461 101.64C207.831 102.28 208.016 103.025 208.016 103.875C208.016 104.725 207.826 105.475 207.446 106.125C207.076 106.765 206.571 107.26 205.931 107.61C205.291 107.96 204.581 108.135 203.801 108.135ZM203.801 106.935C204.291 106.935 204.751 106.82 205.181 106.59C205.611 106.36 205.956 106.015 206.216 105.555C206.486 105.095 206.621 104.535 206.621 103.875C206.621 103.215 206.491 102.655 206.231 102.195C205.971 101.735 205.631 101.395 205.211 101.175C204.791 100.945 204.336 100.83 203.846 100.83C203.346 100.83 202.886 100.945 202.466 101.175C202.056 101.395 201.726 101.735 201.476 102.195C201.226 102.655 201.101 103.215 201.101 103.875C201.101 104.545 201.221 105.11 201.461 105.57C201.711 106.03 202.041 106.375 202.451 106.605C202.861 106.825 203.311 106.935 203.801 106.935ZM219.896 99.63C220.536 99.63 221.106 99.765 221.606 100.035C222.106 100.295 222.501 100.69 222.791 101.22C223.081 101.75 223.226 102.395 223.226 103.155V108H221.876V103.35C221.876 102.53 221.671 101.905 221.261 101.475C220.861 101.035 220.316 100.815 219.626 100.815C218.916 100.815 218.351 101.045 217.931 101.505C217.511 101.955 217.301 102.61 217.301 103.47V108H215.951V103.35C215.951 102.53 215.746 101.905 215.336 101.475C214.936 101.035 214.391 100.815 213.701 100.815C212.991 100.815 212.426 101.045 212.006 101.505C211.586 101.955 211.376 102.61 211.376 103.47V108H210.011V99.78H211.376V100.965C211.646 100.535 212.006 100.205 212.456 99.975C212.916 99.745 213.421 99.63 213.971 99.63C214.661 99.63 215.271 99.785 215.801 100.095C216.331 100.405 216.726 100.86 216.986 101.46C217.216 100.88 217.596 100.43 218.126 100.11C218.656 99.79 219.246 99.63 219.896 99.63ZM227.03 101.295C227.3 100.825 227.7 100.435 228.23 100.125C228.77 99.805 229.395 99.645 230.105 99.645C230.835 99.645 231.495 99.82 232.085 100.17C232.685 100.52 233.155 101.015 233.495 101.655C233.835 102.285 234.005 103.02 234.005 103.86C234.005 104.69 233.835 105.43 233.495 106.08C233.155 106.73 232.685 107.235 232.085 107.595C231.495 107.955 230.835 108.135 230.105 108.135C229.405 108.135 228.785 107.98 228.245 107.67C227.715 107.35 227.31 106.955 227.03 106.485V111.9H225.665V99.78H227.03V101.295ZM232.61 103.86C232.61 103.24 232.485 102.7 232.235 102.24C231.985 101.78 231.645 101.43 231.215 101.19C230.795 100.95 230.33 100.83 229.82 100.83C229.32 100.83 228.855 100.955 228.425 101.205C228.005 101.445 227.665 101.8 227.405 102.27C227.155 102.73 227.03 103.265 227.03 103.875C227.03 104.495 227.155 105.04 227.405 105.51C227.665 105.97 228.005 106.325 228.425 106.575C228.855 106.815 229.32 106.935 229.82 106.935C230.33 106.935 230.795 106.815 231.215 106.575C231.645 106.325 231.985 105.97 232.235 105.51C232.485 105.04 232.61 104.49 232.61 103.86ZM235.492 103.86C235.492 103.02 235.662 102.285 236.002 101.655C236.342 101.015 236.807 100.52 237.397 100.17C237.997 99.82 238.662 99.645 239.392 99.645C240.112 99.645 240.737 99.8 241.267 100.11C241.797 100.42 242.192 100.81 242.452 101.28V99.78H243.832V108H242.452V106.47C242.182 106.95 241.777 107.35 241.237 107.67C240.707 107.98 240.087 108.135 239.377 108.135C238.647 108.135 237.987 107.955 237.397 107.595C236.807 107.235 236.342 106.73 236.002 106.08C235.662 105.43 235.492 104.69 235.492 103.86ZM242.452 103.875C242.452 103.255 242.327 102.715 242.077 102.255C241.827 101.795 241.487 101.445 241.057 101.205C240.637 100.955 240.172 100.83 239.662 100.83C239.152 100.83 238.687 100.95 238.267 101.19C237.847 101.43 237.512 101.78 237.262 102.24C237.012 102.7 236.887 103.24 236.887 103.86C236.887 104.49 237.012 105.04 237.262 105.51C237.512 105.97 237.847 106.325 238.267 106.575C238.687 106.815 239.152 106.935 239.662 106.935C240.172 106.935 240.637 106.815 241.057 106.575C241.487 106.325 241.827 105.97 242.077 105.51C242.327 105.04 242.452 104.495 242.452 103.875ZM247.704 101.115C247.944 100.645 248.284 100.28 248.724 100.02C249.174 99.76 249.719 99.63 250.359 99.63V101.04H249.999C248.469 101.04 247.704 101.87 247.704 103.53V108H246.339V99.78H247.704V101.115ZM259.634 103.575C259.634 103.835 259.619 104.11 259.589 104.4H253.019C253.069 105.21 253.344 105.845 253.844 106.305C254.354 106.755 254.969 106.98 255.689 106.98C256.279 106.98 256.769 106.845 257.159 106.575C257.559 106.295 257.839 105.925 257.999 105.465H259.469C259.249 106.255 258.809 106.9 258.149 107.4C257.489 107.89 256.669 108.135 255.689 108.135C254.909 108.135 254.209 107.96 253.589 107.61C252.979 107.26 252.499 106.765 252.149 106.125C251.799 105.475 251.624 104.725 251.624 103.875C251.624 103.025 251.794 102.28 252.134 101.64C252.474 101 252.949 100.51 253.559 100.17C254.179 99.82 254.889 99.645 255.689 99.645C256.469 99.645 257.159 99.815 257.759 100.155C258.359 100.495 258.819 100.965 259.139 101.565C259.469 102.155 259.634 102.825 259.634 103.575ZM258.224 103.29C258.224 102.77 258.109 102.325 257.879 101.955C257.649 101.575 257.334 101.29 256.934 101.1C256.544 100.9 256.109 100.8 255.629 100.8C254.939 100.8 254.349 101.02 253.859 101.46C253.379 101.9 253.104 102.51 253.034 103.29H258.224ZM261.126 103.86C261.126 103.02 261.296 102.285 261.636 101.655C261.976 101.015 262.441 100.52 263.031 100.17C263.631 99.82 264.301 99.645 265.041 99.645C265.681 99.645 266.276 99.795 266.826 100.095C267.376 100.385 267.796 100.77 268.086 101.25V96.9H269.466V108H268.086V106.455C267.816 106.945 267.416 107.35 266.886 107.67C266.356 107.98 265.736 108.135 265.026 108.135C264.296 108.135 263.631 107.955 263.031 107.595C262.441 107.235 261.976 106.73 261.636 106.08C261.296 105.43 261.126 104.69 261.126 103.86ZM268.086 103.875C268.086 103.255 267.961 102.715 267.711 102.255C267.461 101.795 267.121 101.445 266.691 101.205C266.271 100.955 265.806 100.83 265.296 100.83C264.786 100.83 264.321 100.95 263.901 101.19C263.481 101.43 263.146 101.78 262.896 102.24C262.646 102.7 262.521 103.24 262.521 103.86C262.521 104.49 262.646 105.04 262.896 105.51C263.146 105.97 263.481 106.325 263.901 106.575C264.321 106.815 264.786 106.935 265.296 106.935C265.806 106.935 266.271 106.815 266.691 106.575C267.121 106.325 267.461 105.97 267.711 105.51C267.961 105.04 268.086 104.495 268.086 103.875ZM277.837 100.905V105.75C277.837 106.15 277.922 106.435 278.092 106.605C278.262 106.765 278.557 106.845 278.977 106.845H279.982V108H278.752C277.992 108 277.422 107.825 277.042 107.475C276.662 107.125 276.472 106.55 276.472 105.75V100.905H275.407V99.78H276.472V97.71H277.837V99.78H279.982V100.905H277.837ZM285.421 108.135C284.651 108.135 283.951 107.96 283.321 107.61C282.701 107.26 282.211 106.765 281.851 106.125C281.501 105.475 281.326 104.725 281.326 103.875C281.326 103.035 281.506 102.295 281.866 101.655C282.236 101.005 282.736 100.51 283.366 100.17C283.996 99.82 284.701 99.645 285.481 99.645C286.261 99.645 286.966 99.82 287.596 100.17C288.226 100.51 288.721 101 289.081 101.64C289.451 102.28 289.636 103.025 289.636 103.875C289.636 104.725 289.446 105.475 289.066 106.125C288.696 106.765 288.191 107.26 287.551 107.61C286.911 107.96 286.201 108.135 285.421 108.135ZM285.421 106.935C285.911 106.935 286.371 106.82 286.801 106.59C287.231 106.36 287.576 106.015 287.836 105.555C288.106 105.095 288.241 104.535 288.241 103.875C288.241 103.215 288.111 102.655 287.851 102.195C287.591 101.735 287.251 101.395 286.831 101.175C286.411 100.945 285.956 100.83 285.466 100.83C284.966 100.83 284.506 100.945 284.086 101.175C283.676 101.395 283.346 101.735 283.096 102.195C282.846 102.655 282.721 103.215 282.721 103.875C282.721 104.545 282.841 105.11 283.081 105.57C283.331 106.03 283.661 106.375 284.071 106.605C284.481 106.825 284.931 106.935 285.421 106.935ZM299.414 108.135C298.644 108.135 297.944 107.96 297.314 107.61C296.694 107.26 296.204 106.765 295.844 106.125C295.494 105.475 295.319 104.725 295.319 103.875C295.319 103.035 295.499 102.295 295.859 101.655C296.229 101.005 296.729 100.51 297.359 100.17C297.989 99.82 298.694 99.645 299.474 99.645C300.254 99.645 300.959 99.82 301.589 100.17C302.22 100.51 302.715 101 303.074 101.64C303.444 102.28 303.629 103.025 303.629 103.875C303.629 104.725 303.439 105.475 303.059 106.125C302.689 106.765 302.184 107.26 301.545 107.61C300.904 107.96 300.194 108.135 299.414 108.135ZM299.414 106.935C299.904 106.935 300.364 106.82 300.794 106.59C301.224 106.36 301.569 106.015 301.829 105.555C302.099 105.095 302.234 104.535 302.234 103.875C302.234 103.215 302.104 102.655 301.844 102.195C301.584 101.735 301.244 101.395 300.824 101.175C300.404 100.945 299.949 100.83 299.459 100.83C298.959 100.83 298.499 100.945 298.079 101.175C297.669 101.395 297.339 101.735 297.089 102.195C296.839 102.655 296.714 103.215 296.714 103.875C296.714 104.545 296.834 105.11 297.074 105.57C297.324 106.03 297.654 106.375 298.064 106.605C298.474 106.825 298.924 106.935 299.414 106.935ZM307.289 100.905V105.75C307.289 106.15 307.374 106.435 307.544 106.605C307.714 106.765 308.009 106.845 308.429 106.845H309.434V108H308.204C307.444 108 306.874 107.825 306.494 107.475C306.114 107.125 305.924 106.55 305.924 105.75V100.905H304.859V99.78H305.924V97.71H307.289V99.78H309.434V100.905H307.289ZM315.368 99.63C315.988 99.63 316.548 99.765 317.048 100.035C317.548 100.295 317.938 100.69 318.218 101.22C318.508 101.75 318.653 102.395 318.653 103.155V108H317.303V103.35C317.303 102.53 317.098 101.905 316.688 101.475C316.278 101.035 315.718 100.815 315.008 100.815C314.288 100.815 313.713 101.04 313.283 101.49C312.863 101.94 312.653 102.595 312.653 103.455V108H311.288V96.9H312.653V100.95C312.923 100.53 313.293 100.205 313.763 99.975C314.243 99.745 314.778 99.63 315.368 99.63ZM328.583 103.575C328.583 103.835 328.568 104.11 328.538 104.4H321.968C322.018 105.21 322.293 105.845 322.793 106.305C323.303 106.755 323.918 106.98 324.638 106.98C325.228 106.98 325.718 106.845 326.108 106.575C326.508 106.295 326.788 105.925 326.948 105.465H328.418C328.198 106.255 327.758 106.9 327.098 107.4C326.438 107.89 325.618 108.135 324.638 108.135C323.858 108.135 323.158 107.96 322.538 107.61C321.928 107.26 321.448 106.765 321.098 106.125C320.748 105.475 320.573 104.725 320.573 103.875C320.573 103.025 320.743 102.28 321.083 101.64C321.423 101 321.898 100.51 322.508 100.17C323.128 99.82 323.838 99.645 324.638 99.645C325.418 99.645 326.108 99.815 326.708 100.155C327.308 100.495 327.768 100.965 328.088 101.565C328.418 102.155 328.583 102.825 328.583 103.575ZM327.173 103.29C327.173 102.77 327.058 102.325 326.828 101.955C326.598 101.575 326.283 101.29 325.883 101.1C325.493 100.9 325.058 100.8 324.578 100.8C323.888 100.8 323.298 101.02 322.808 101.46C322.328 101.9 322.053 102.51 321.983 103.29H327.173ZM331.95 101.115C332.19 100.645 332.53 100.28 332.97 100.02C333.42 99.76 333.965 99.63 334.605 99.63V101.04H334.245C332.715 101.04 331.95 101.87 331.95 103.53V108H330.585V99.78H331.95V101.115ZM340.069 103.875C340.069 103.025 340.239 102.285 340.579 101.655C340.919 101.015 341.389 100.52 341.989 100.17C342.599 99.82 343.294 99.645 344.074 99.645C345.084 99.645 345.914 99.89 346.564 100.38C347.224 100.87 347.659 101.55 347.869 102.42H346.399C346.259 101.92 345.984 101.525 345.574 101.235C345.174 100.945 344.674 100.8 344.074 100.8C343.294 100.8 342.664 101.07 342.184 101.61C341.704 102.14 341.464 102.895 341.464 103.875C341.464 104.865 341.704 105.63 342.184 106.17C342.664 106.71 343.294 106.98 344.074 106.98C344.674 106.98 345.174 106.84 345.574 106.56C345.974 106.28 346.249 105.88 346.399 105.36H347.869C347.649 106.2 347.209 106.875 346.549 107.385C345.889 107.885 345.064 108.135 344.074 108.135C343.294 108.135 342.599 107.96 341.989 107.61C341.389 107.26 340.919 106.765 340.579 106.125C340.239 105.485 340.069 104.735 340.069 103.875ZM353.971 99.63C354.591 99.63 355.151 99.765 355.651 100.035C356.151 100.295 356.541 100.69 356.821 101.22C357.111 101.75 357.256 102.395 357.256 103.155V108H355.906V103.35C355.906 102.53 355.701 101.905 355.291 101.475C354.881 101.035 354.321 100.815 353.611 100.815C352.891 100.815 352.316 101.04 351.886 101.49C351.466 101.94 351.256 102.595 351.256 103.455V108H349.891V96.9H351.256V100.95C351.526 100.53 351.896 100.205 352.366 99.975C352.846 99.745 353.381 99.63 353.971 99.63ZM359.175 103.86C359.175 103.02 359.345 102.285 359.685 101.655C360.025 101.015 360.49 100.52 361.08 100.17C361.68 99.82 362.345 99.645 363.075 99.645C363.795 99.645 364.42 99.8 364.95 100.11C365.48 100.42 365.875 100.81 366.135 101.28V99.78H367.515V108H366.135V106.47C365.865 106.95 365.46 107.35 364.92 107.67C364.39 107.98 363.77 108.135 363.06 108.135C362.33 108.135 361.67 107.955 361.08 107.595C360.49 107.235 360.025 106.73 359.685 106.08C359.345 105.43 359.175 104.69 359.175 103.86ZM366.135 103.875C366.135 103.255 366.01 102.715 365.76 102.255C365.51 101.795 365.17 101.445 364.74 101.205C364.32 100.955 363.855 100.83 363.345 100.83C362.835 100.83 362.37 100.95 361.95 101.19C361.53 101.43 361.195 101.78 360.945 102.24C360.695 102.7 360.57 103.24 360.57 103.86C360.57 104.49 360.695 105.04 360.945 105.51C361.195 105.97 361.53 106.325 361.95 106.575C362.37 106.815 362.835 106.935 363.345 106.935C363.855 106.935 364.32 106.815 364.74 106.575C365.17 106.325 365.51 105.97 365.76 105.51C366.01 105.04 366.135 104.495 366.135 103.875ZM371.687 100.905V105.75C371.687 106.15 371.772 106.435 371.942 106.605C372.112 106.765 372.407 106.845 372.827 106.845H373.832V108H372.602C371.842 108 371.272 107.825 370.892 107.475C370.512 107.125 370.322 106.55 370.322 105.75V100.905H369.257V99.78H370.322V97.71H371.687V99.78H373.832V100.905H371.687ZM379.375 103.86C379.375 103.02 379.545 102.285 379.885 101.655C380.225 101.015 380.69 100.52 381.28 100.17C381.88 99.82 382.545 99.645 383.275 99.645C383.995 99.645 384.62 99.8 385.15 100.11C385.68 100.42 386.075 100.81 386.335 101.28V99.78H387.715V108H386.335V106.47C386.065 106.95 385.66 107.35 385.12 107.67C384.59 107.98 383.97 108.135 383.26 108.135C382.53 108.135 381.87 107.955 381.28 107.595C380.69 107.235 380.225 106.73 379.885 106.08C379.545 105.43 379.375 104.69 379.375 103.86ZM386.335 103.875C386.335 103.255 386.21 102.715 385.96 102.255C385.71 101.795 385.37 101.445 384.94 101.205C384.52 100.955 384.055 100.83 383.545 100.83C383.035 100.83 382.57 100.95 382.15 101.19C381.73 101.43 381.395 101.78 381.145 102.24C380.895 102.7 380.77 103.24 380.77 103.86C380.77 104.49 380.895 105.04 381.145 105.51C381.395 105.97 381.73 106.325 382.15 106.575C382.57 106.815 383.035 106.935 383.545 106.935C384.055 106.935 384.52 106.815 384.94 106.575C385.37 106.325 385.71 105.97 385.96 105.51C386.21 105.04 386.335 104.495 386.335 103.875ZM391.587 101.295C391.857 100.825 392.257 100.435 392.787 100.125C393.327 99.805 393.952 99.645 394.662 99.645C395.392 99.645 396.052 99.82 396.642 100.17C397.242 100.52 397.712 101.015 398.052 101.655C398.392 102.285 398.562 103.02 398.562 103.86C398.562 104.69 398.392 105.43 398.052 106.08C397.712 106.73 397.242 107.235 396.642 107.595C396.052 107.955 395.392 108.135 394.662 108.135C393.962 108.135 393.342 107.98 392.802 107.67C392.272 107.35 391.867 106.955 391.587 106.485V111.9H390.222V99.78H391.587V101.295ZM397.167 103.86C397.167 103.24 397.042 102.7 396.792 102.24C396.542 101.78 396.202 101.43 395.772 101.19C395.352 100.95 394.887 100.83 394.377 100.83C393.877 100.83 393.412 100.955 392.982 101.205C392.562 101.445 392.222 101.8 391.962 102.27C391.712 102.73 391.587 103.265 391.587 103.875C391.587 104.495 391.712 105.04 391.962 105.51C392.222 105.97 392.562 106.325 392.982 106.575C393.412 106.815 393.877 106.935 394.377 106.935C394.887 106.935 395.352 106.815 395.772 106.575C396.202 106.325 396.542 105.97 396.792 105.51C397.042 105.04 397.167 104.49 397.167 103.86ZM401.923 101.295C402.193 100.825 402.593 100.435 403.123 100.125C403.663 99.805 404.288 99.645 404.998 99.645C405.728 99.645 406.388 99.82 406.978 100.17C407.578 100.52 408.048 101.015 408.388 101.655C408.728 102.285 408.898 103.02 408.898 103.86C408.898 104.69 408.728 105.43 408.388 106.08C408.048 106.73 407.578 107.235 406.978 107.595C406.388 107.955 405.728 108.135 404.998 108.135C404.298 108.135 403.678 107.98 403.138 107.67C402.608 107.35 402.203 106.955 401.923 106.485V111.9H400.558V99.78H401.923V101.295ZM407.503 103.86C407.503 103.24 407.378 102.7 407.128 102.24C406.878 101.78 406.538 101.43 406.108 101.19C405.688 100.95 405.223 100.83 404.713 100.83C404.213 100.83 403.748 100.955 403.318 101.205C402.898 101.445 402.558 101.8 402.298 102.27C402.048 102.73 401.923 103.265 401.923 103.875C401.923 104.495 402.048 105.04 402.298 105.51C402.558 105.97 402.898 106.325 403.318 106.575C403.748 106.815 404.213 106.935 404.713 106.935C405.223 106.935 405.688 106.815 406.108 106.575C406.538 106.325 406.878 105.97 407.128 105.51C407.378 105.04 407.503 104.49 407.503 103.86ZM412.26 96.9V108H410.895V96.9H412.26ZM415.492 98.445C415.232 98.445 415.012 98.355 414.832 98.175C414.652 97.995 414.562 97.775 414.562 97.515C414.562 97.255 414.652 97.035 414.832 96.855C415.012 96.675 415.232 96.585 415.492 96.585C415.742 96.585 415.952 96.675 416.122 96.855C416.302 97.035 416.392 97.255 416.392 97.515C416.392 97.775 416.302 97.995 416.122 98.175C415.952 98.355 415.742 98.445 415.492 98.445ZM416.152 99.78V108H414.787V99.78H416.152ZM418.168 103.875C418.168 103.025 418.338 102.285 418.678 101.655C419.018 101.015 419.488 100.52 420.088 100.17C420.698 99.82 421.393 99.645 422.173 99.645C423.183 99.645 424.013 99.89 424.663 100.38C425.323 100.87 425.758 101.55 425.968 102.42H424.498C424.358 101.92 424.083 101.525 423.673 101.235C423.273 100.945 422.773 100.8 422.173 100.8C421.393 100.8 420.763 101.07 420.283 101.61C419.803 102.14 419.563 102.895 419.563 103.875C419.563 104.865 419.803 105.63 420.283 106.17C420.763 106.71 421.393 106.98 422.173 106.98C422.773 106.98 423.273 106.84 423.673 106.56C424.073 106.28 424.348 105.88 424.498 105.36H425.968C425.748 106.2 425.308 106.875 424.648 107.385C423.988 107.885 423.163 108.135 422.173 108.135C421.393 108.135 420.698 107.96 420.088 107.61C419.488 107.26 419.018 106.765 418.678 106.125C418.338 105.485 418.168 104.735 418.168 103.875ZM427.479 103.86C427.479 103.02 427.649 102.285 427.989 101.655C428.329 101.015 428.794 100.52 429.384 100.17C429.984 99.82 430.649 99.645 431.379 99.645C432.099 99.645 432.724 99.8 433.254 100.11C433.784 100.42 434.179 100.81 434.439 101.28V99.78H435.819V108H434.439V106.47C434.169 106.95 433.764 107.35 433.224 107.67C432.694 107.98 432.074 108.135 431.364 108.135C430.634 108.135 429.974 107.955 429.384 107.595C428.794 107.235 428.329 106.73 427.989 106.08C427.649 105.43 427.479 104.69 427.479 103.86ZM434.439 103.875C434.439 103.255 434.314 102.715 434.064 102.255C433.814 101.795 433.474 101.445 433.044 101.205C432.624 100.955 432.159 100.83 431.649 100.83C431.139 100.83 430.674 100.95 430.254 101.19C429.834 101.43 429.499 101.78 429.249 102.24C428.999 102.7 428.874 103.24 428.874 103.86C428.874 104.49 428.999 105.04 429.249 105.51C429.499 105.97 429.834 106.325 430.254 106.575C430.674 106.815 431.139 106.935 431.649 106.935C432.159 106.935 432.624 106.815 433.044 106.575C433.474 106.325 433.814 105.97 434.064 105.51C434.314 105.04 434.439 104.495 434.439 103.875ZM439.991 100.905V105.75C439.991 106.15 440.076 106.435 440.246 106.605C440.416 106.765 440.711 106.845 441.131 106.845H442.136V108H440.906C440.146 108 439.576 107.825 439.196 107.475C438.816 107.125 438.626 106.55 438.626 105.75V100.905H437.561V99.78H438.626V97.71H439.991V99.78H442.136V100.905H439.991ZM444.695 98.445C444.435 98.445 444.215 98.355 444.035 98.175C443.855 97.995 443.765 97.775 443.765 97.515C443.765 97.255 443.855 97.035 444.035 96.855C444.215 96.675 444.435 96.585 444.695 96.585C444.945 96.585 445.155 96.675 445.325 96.855C445.505 97.035 445.595 97.255 445.595 97.515C445.595 97.775 445.505 97.995 445.325 98.175C445.155 98.355 444.945 98.445 444.695 98.445ZM445.355 99.78V108H443.99V99.78H445.355ZM451.466 108.135C450.696 108.135 449.996 107.96 449.366 107.61C448.746 107.26 448.256 106.765 447.896 106.125C447.546 105.475 447.371 104.725 447.371 103.875C447.371 103.035 447.551 102.295 447.911 101.655C448.281 101.005 448.781 100.51 449.411 100.17C450.041 99.82 450.746 99.645 451.526 99.645C452.306 99.645 453.011 99.82 453.641 100.17C454.271 100.51 454.766 101 455.126 101.64C455.496 102.28 455.681 103.025 455.681 103.875C455.681 104.725 455.491 105.475 455.111 106.125C454.741 106.765 454.236 107.26 453.596 107.61C452.956 107.96 452.246 108.135 451.466 108.135ZM451.466 106.935C451.956 106.935 452.416 106.82 452.846 106.59C453.276 106.36 453.621 106.015 453.881 105.555C454.151 105.095 454.286 104.535 454.286 103.875C454.286 103.215 454.156 102.655 453.896 102.195C453.636 101.735 453.296 101.395 452.876 101.175C452.456 100.945 452.001 100.83 451.511 100.83C451.011 100.83 450.551 100.945 450.131 101.175C449.721 101.395 449.391 101.735 449.141 102.195C448.891 102.655 448.766 103.215 448.766 103.875C448.766 104.545 448.886 105.11 449.126 105.57C449.376 106.03 449.706 106.375 450.116 106.605C450.526 106.825 450.976 106.935 451.466 106.935ZM461.681 99.63C462.681 99.63 463.491 99.935 464.111 100.545C464.731 101.145 465.041 102.015 465.041 103.155V108H463.691V103.35C463.691 102.53 463.486 101.905 463.076 101.475C462.666 101.035 462.106 100.815 461.396 100.815C460.676 100.815 460.101 101.04 459.671 101.49C459.251 101.94 459.041 102.595 459.041 103.455V108H457.676V99.78H459.041V100.95C459.311 100.53 459.676 100.205 460.136 99.975C460.606 99.745 461.121 99.63 461.681 99.63ZM470.381 108.135C469.751 108.135 469.186 108.03 468.686 107.82C468.186 107.6 467.791 107.3 467.501 106.92C467.211 106.53 467.051 106.085 467.021 105.585H468.431C468.471 105.995 468.661 106.33 469.001 106.59C469.351 106.85 469.806 106.98 470.366 106.98C470.886 106.98 471.296 106.865 471.596 106.635C471.896 106.405 472.046 106.115 472.046 105.765C472.046 105.405 471.886 105.14 471.566 104.97C471.246 104.79 470.751 104.615 470.081 104.445C469.471 104.285 468.971 104.125 468.581 103.965C468.201 103.795 467.871 103.55 467.591 103.23C467.321 102.9 467.186 102.47 467.186 101.94C467.186 101.52 467.311 101.135 467.561 100.785C467.811 100.435 468.166 100.16 468.626 99.96C469.086 99.75 469.611 99.645 470.201 99.645C471.111 99.645 471.846 99.875 472.406 100.335C472.966 100.795 473.266 101.425 473.306 102.225H471.941C471.911 101.795 471.736 101.45 471.416 101.19C471.106 100.93 470.686 100.8 470.156 100.8C469.666 100.8 469.276 100.905 468.986 101.115C468.696 101.325 468.551 101.6 468.551 101.94C468.551 102.21 468.636 102.435 468.806 102.615C468.986 102.785 469.206 102.925 469.466 103.035C469.736 103.135 470.106 103.25 470.576 103.38C471.166 103.54 471.646 103.7 472.016 103.86C472.386 104.01 472.701 104.24 472.961 104.55C473.231 104.86 473.371 105.265 473.381 105.765C473.381 106.215 473.256 106.62 473.006 106.98C472.756 107.34 472.401 107.625 471.941 107.835C471.491 108.035 470.971 108.135 470.381 108.135ZM479.917 97.545H481.432L479.992 100.95H479.032L479.917 97.545ZM482.347 97.545H483.862L482.422 100.95H481.447L482.347 97.545Z" fill="#D6D6F5"/>
<path d="M321.296 154.364V162.968C321.296 164.3 320.918 165.326 320.162 166.046C319.418 166.766 318.41 167.126 317.138 167.126C315.806 167.126 314.738 166.748 313.934 165.992C313.13 165.236 312.728 164.162 312.728 162.77H315.788C315.788 163.298 315.896 163.7 316.112 163.976C316.328 164.24 316.64 164.372 317.048 164.372C317.42 164.372 317.708 164.252 317.912 164.012C318.116 163.772 318.218 163.424 318.218 162.968V154.364H321.296ZM323.37 161.96C323.37 160.928 323.562 160.022 323.946 159.242C324.342 158.462 324.876 157.862 325.548 157.442C326.22 157.022 326.97 156.812 327.798 156.812C328.506 156.812 329.124 156.956 329.652 157.244C330.192 157.532 330.606 157.91 330.894 158.378V156.956H333.972V167H330.894V165.578C330.594 166.046 330.174 166.424 329.634 166.712C329.106 167 328.488 167.144 327.78 167.144C326.964 167.144 326.22 166.934 325.548 166.514C324.876 166.082 324.342 165.476 323.946 164.696C323.562 163.904 323.37 162.992 323.37 161.96ZM330.894 161.978C330.894 161.21 330.678 160.604 330.246 160.16C329.826 159.716 329.31 159.494 328.698 159.494C328.086 159.494 327.564 159.716 327.132 160.16C326.712 160.592 326.502 161.192 326.502 161.96C326.502 162.728 326.712 163.34 327.132 163.796C327.564 164.24 328.086 164.462 328.698 164.462C329.31 164.462 329.826 164.24 330.246 163.796C330.678 163.352 330.894 162.746 330.894 161.978ZM342.519 156.848C343.695 156.848 344.631 157.232 345.327 158C346.035 158.756 346.389 159.8 346.389 161.132V167H343.329V161.546C343.329 160.874 343.155 160.352 342.807 159.98C342.459 159.608 341.991 159.422 341.403 159.422C340.815 159.422 340.347 159.608 339.999 159.98C339.651 160.352 339.477 160.874 339.477 161.546V167H336.399V156.956H339.477V158.288C339.789 157.844 340.209 157.496 340.737 157.244C341.265 156.98 341.859 156.848 342.519 156.848ZM354.848 156.848C356.024 156.848 356.96 157.232 357.656 158C358.364 158.756 358.718 159.8 358.718 161.132V167H355.658V161.546C355.658 160.874 355.484 160.352 355.136 159.98C354.788 159.608 354.32 159.422 353.732 159.422C353.144 159.422 352.676 159.608 352.328 159.98C351.98 160.352 351.806 160.874 351.806 161.546V167H348.728V156.956H351.806V158.288C352.118 157.844 352.538 157.496 353.066 157.244C353.594 156.98 354.188 156.848 354.848 156.848Z" fill="white"/>
<path d="M296.825 180.575V187.22C296.825 188.01 297.03 188.605 297.44 189.005C297.86 189.405 298.44 189.605 299.18 189.605C299.93 189.605 300.51 189.405 300.92 189.005C301.34 188.605 301.55 188.01 301.55 187.22V180.575H303.26V187.19C303.26 188.04 303.075 188.76 302.705 189.35C302.335 189.94 301.84 190.38 301.22 190.67C300.6 190.96 299.915 191.105 299.165 191.105C298.415 191.105 297.73 190.96 297.11 190.67C296.5 190.38 296.015 189.94 295.655 189.35C295.295 188.76 295.115 188.04 295.115 187.19V180.575H296.825ZM307.396 180.575V191H305.686V180.575H307.396ZM317.343 180.575C318.453 180.575 319.423 180.79 320.253 181.22C321.093 181.64 321.738 182.25 322.188 183.05C322.648 183.84 322.878 184.765 322.878 185.825C322.878 186.885 322.648 187.805 322.188 188.585C321.738 189.365 321.093 189.965 320.253 190.385C319.423 190.795 318.453 191 317.343 191H313.938V180.575H317.343ZM317.343 189.605C318.563 189.605 319.498 189.275 320.148 188.615C320.798 187.955 321.123 187.025 321.123 185.825C321.123 184.615 320.798 183.67 320.148 182.99C319.498 182.31 318.563 181.97 317.343 181.97H315.648V189.605H317.343ZM332.348 186.665C332.348 186.975 332.328 187.255 332.288 187.505H325.973C326.023 188.165 326.268 188.695 326.708 189.095C327.148 189.495 327.688 189.695 328.328 189.695C329.248 189.695 329.898 189.31 330.278 188.54H332.123C331.873 189.3 331.418 189.925 330.758 190.415C330.108 190.895 329.298 191.135 328.328 191.135C327.538 191.135 326.828 190.96 326.198 190.61C325.578 190.25 325.088 189.75 324.728 189.11C324.378 188.46 324.203 187.71 324.203 186.86C324.203 186.01 324.373 185.265 324.713 184.625C325.063 183.975 325.548 183.475 326.168 183.125C326.798 182.775 327.518 182.6 328.328 182.6C329.108 182.6 329.803 182.77 330.413 183.11C331.023 183.45 331.498 183.93 331.838 184.55C332.178 185.16 332.348 185.865 332.348 186.665ZM330.563 186.125C330.553 185.495 330.328 184.99 329.888 184.61C329.448 184.23 328.903 184.04 328.253 184.04C327.663 184.04 327.158 184.23 326.738 184.61C326.318 184.98 326.068 185.485 325.988 186.125H330.563ZM337.23 191.135C336.58 191.135 335.995 191.02 335.475 190.79C334.965 190.55 334.56 190.23 334.26 189.83C333.96 189.42 333.8 188.965 333.78 188.465H335.55C335.58 188.815 335.745 189.11 336.045 189.35C336.355 189.58 336.74 189.695 337.2 189.695C337.68 189.695 338.05 189.605 338.31 189.425C338.58 189.235 338.715 188.995 338.715 188.705C338.715 188.395 338.565 188.165 338.265 188.015C337.975 187.865 337.51 187.7 336.87 187.52C336.25 187.35 335.745 187.185 335.355 187.025C334.965 186.865 334.625 186.62 334.335 186.29C334.055 185.96 333.915 185.525 333.915 184.985C333.915 184.545 334.045 184.145 334.305 183.785C334.565 183.415 334.935 183.125 335.415 182.915C335.905 182.705 336.465 182.6 337.095 182.6C338.035 182.6 338.79 182.84 339.36 183.32C339.94 183.79 340.25 184.435 340.29 185.255H338.58C338.55 184.885 338.4 184.59 338.13 184.37C337.86 184.15 337.495 184.04 337.035 184.04C336.585 184.04 336.24 184.125 336 184.295C335.76 184.465 335.64 184.69 335.64 184.97C335.64 185.19 335.72 185.375 335.88 185.525C336.04 185.675 336.235 185.795 336.465 185.885C336.695 185.965 337.035 186.07 337.485 186.2C338.085 186.36 338.575 186.525 338.955 186.695C339.345 186.855 339.68 187.095 339.96 187.415C340.24 187.735 340.385 188.16 340.395 188.69C340.395 189.16 340.265 189.58 340.005 189.95C339.745 190.32 339.375 190.61 338.895 190.82C338.425 191.03 337.87 191.135 337.23 191.135ZM343.313 181.64C343.003 181.64 342.743 181.535 342.533 181.325C342.323 181.115 342.218 180.855 342.218 180.545C342.218 180.235 342.323 179.975 342.533 179.765C342.743 179.555 343.003 179.45 343.313 179.45C343.613 179.45 343.868 179.555 344.078 179.765C344.288 179.975 344.393 180.235 344.393 180.545C344.393 180.855 344.288 181.115 344.078 181.325C343.868 181.535 343.613 181.64 343.313 181.64ZM344.153 182.735V191H342.443V182.735H344.153ZM349.928 182.6C350.568 182.6 351.133 182.73 351.623 182.99C352.123 183.24 352.513 183.555 352.793 183.935V182.735H354.518V191.135C354.518 191.895 354.358 192.57 354.038 193.16C353.718 193.76 353.253 194.23 352.643 194.57C352.043 194.91 351.323 195.08 350.483 195.08C349.363 195.08 348.433 194.815 347.693 194.285C346.953 193.765 346.533 193.055 346.433 192.155H348.128C348.258 192.585 348.533 192.93 348.953 193.19C349.383 193.46 349.893 193.595 350.483 193.595C351.173 193.595 351.728 193.385 352.148 192.965C352.578 192.545 352.793 191.935 352.793 191.135V189.755C352.503 190.145 352.108 190.475 351.608 190.745C351.118 191.005 350.558 191.135 349.928 191.135C349.208 191.135 348.548 190.955 347.948 190.595C347.358 190.225 346.888 189.715 346.538 189.065C346.198 188.405 346.028 187.66 346.028 186.83C346.028 186 346.198 185.265 346.538 184.625C346.888 183.985 347.358 183.49 347.948 183.14C348.548 182.78 349.208 182.6 349.928 182.6ZM352.793 186.86C352.793 186.29 352.673 185.795 352.433 185.375C352.203 184.955 351.898 184.635 351.518 184.415C351.138 184.195 350.728 184.085 350.288 184.085C349.848 184.085 349.438 184.195 349.058 184.415C348.678 184.625 348.368 184.94 348.128 185.36C347.898 185.77 347.783 186.26 347.783 186.83C347.783 187.4 347.898 187.9 348.128 188.33C348.368 188.76 348.678 189.09 349.058 189.32C349.448 189.54 349.858 189.65 350.288 189.65C350.728 189.65 351.138 189.54 351.518 189.32C351.898 189.1 352.203 188.78 352.433 188.36C352.673 187.93 352.793 187.43 352.793 186.86ZM361.134 182.6C361.784 182.6 362.364 182.735 362.874 183.005C363.394 183.275 363.799 183.675 364.089 184.205C364.379 184.735 364.524 185.375 364.524 186.125V191H362.829V186.38C362.829 185.64 362.644 185.075 362.274 184.685C361.904 184.285 361.399 184.085 360.759 184.085C360.119 184.085 359.609 184.285 359.229 184.685C358.859 185.075 358.674 185.64 358.674 186.38V191H356.964V182.735H358.674V183.68C358.954 183.34 359.309 183.075 359.739 182.885C360.179 182.695 360.644 182.6 361.134 182.6ZM374.48 186.665C374.48 186.975 374.46 187.255 374.42 187.505H368.105C368.155 188.165 368.4 188.695 368.84 189.095C369.28 189.495 369.82 189.695 370.46 189.695C371.38 189.695 372.03 189.31 372.41 188.54H374.255C374.005 189.3 373.55 189.925 372.89 190.415C372.24 190.895 371.43 191.135 370.46 191.135C369.67 191.135 368.96 190.96 368.33 190.61C367.71 190.25 367.22 189.75 366.86 189.11C366.51 188.46 366.335 187.71 366.335 186.86C366.335 186.01 366.505 185.265 366.845 184.625C367.195 183.975 367.68 183.475 368.3 183.125C368.93 182.775 369.65 182.6 370.46 182.6C371.24 182.6 371.935 182.77 372.545 183.11C373.155 183.45 373.63 183.93 373.97 184.55C374.31 185.16 374.48 185.865 374.48 186.665ZM372.695 186.125C372.685 185.495 372.46 184.99 372.02 184.61C371.58 184.23 371.035 184.04 370.385 184.04C369.795 184.04 369.29 184.23 368.87 184.61C368.45 184.98 368.2 185.485 368.12 186.125H372.695ZM378.073 183.935C378.323 183.515 378.653 183.19 379.063 182.96C379.483 182.72 379.978 182.6 380.548 182.6V184.37H380.113C379.443 184.37 378.933 184.54 378.583 184.88C378.243 185.22 378.073 185.81 378.073 186.65V191H376.363V182.735H378.073V183.935Z" fill="white"/>
<defs>
<radialGradient id="paint0_radial_241_59" cx="0" cy="0" r="1" gradientUnits="userSpaceOnUse" gradientTransform="translate(337 133.696) rotate(90) scale(433.304 583.232)">
<stop stop-color="#3332CB" stop-opacity="0.9"/>
<stop offset="0.40625" stop-color="#3332CB" stop-opacity="0.9"/>
<stop offset="1" stop-color="#3332CB" stop-opacity="0.9"/>
</radialGradient>
</defs>
</svg>
