<svg width="17" height="17" viewBox="0 0 17 17" fill="none" xmlns="http://www.w3.org/2000/svg">
<path d="M9.83317 1.91675C9.83317 1.58523 9.70147 1.26729 9.46705 1.03286C9.23263 0.798444 8.91469 0.666748 8.58317 0.666748C8.25165 0.666748 7.93371 0.798444 7.69929 1.03286C7.46487 1.26729 7.33317 1.58523 7.33317 1.91675V7.33341H1.9165C1.58498 7.33341 1.26704 7.46511 1.03262 7.69953C0.7982 7.93395 0.666504 8.25189 0.666504 8.58341C0.666504 8.91494 0.7982 9.23288 1.03262 9.4673C1.26704 9.70172 1.58498 9.83341 1.9165 9.83341H7.33317V15.2501C7.33317 15.5816 7.46487 15.8995 7.69929 16.134C7.93371 16.3684 8.25165 16.5001 8.58317 16.5001C8.91469 16.5001 9.23263 16.3684 9.46705 16.134C9.70147 15.8995 9.83317 15.5816 9.83317 15.2501V9.83341H15.2498C15.5814 9.83341 15.8993 9.70172 16.1337 9.4673C16.3681 9.23288 16.4998 8.91494 16.4998 8.58341C16.4998 8.25189 16.3681 7.93395 16.1337 7.69953C15.8993 7.46511 15.5814 7.33341 15.2498 7.33341H9.83317V1.91675Z" fill="white" fill-opacity="0.7"/>
</svg>
