<svg width="60" height="60" viewBox="0 0 60 60" fill="none" xmlns="http://www.w3.org/2000/svg">
<circle cx="30" cy="30" r="30" fill="white"/>
<path d="M23.2751 41.883L16 43.5L17.617 36.2249C16.5521 34.233 15.9966 32.0086 16 29.75C16 22.1559 22.1559 16 29.75 16C37.3441 16 43.5 22.1559 43.5 29.75C43.5 37.3441 37.3441 43.5 29.75 43.5C27.4914 43.5034 25.267 42.9479 23.2751 41.883V41.883ZM22.875 29.75C22.875 31.5734 23.5993 33.322 24.8887 34.6114C26.178 35.9007 27.9267 36.625 29.75 36.625C31.5734 36.625 33.3221 35.9007 34.6114 34.6114C35.9007 33.322 36.625 31.5734 36.625 29.75H33.875C33.875 30.844 33.4404 31.8932 32.6668 32.6668C31.8932 33.4404 30.844 33.875 29.75 33.875C28.656 33.875 27.6068 33.4404 26.8332 32.6668C26.0596 31.8932 25.625 30.844 25.625 29.75H22.875Z" fill="#3332CB"/>
</svg>
