<svg width="60" height="60" viewBox="0 0 60 60" fill="none" xmlns="http://www.w3.org/2000/svg">
<circle cx="30" cy="30" r="30" fill="white"/>
<path d="M30.5 29.5C28.6766 29.5 26.9279 28.7757 25.6386 27.4864C24.3493 26.197 23.625 24.4484 23.625 22.625C23.625 20.8016 24.3493 19.053 25.6386 17.7636C26.9279 16.4743 28.6766 15.75 30.5 15.75C32.3233 15.75 34.072 16.4743 35.3613 17.7636C36.6506 19.053 37.375 20.8016 37.375 22.625C37.375 24.4484 36.6506 26.197 35.3613 27.4864C34.072 28.7757 32.3233 29.5 30.5 29.5V29.5ZM38.75 36.375V43.25H36V36.375C36 30.2549 39.6355 24.9831 44.8646 22.603L46.0031 25.1055C43.8398 26.0894 42.0055 27.6753 40.7194 29.6737C39.4332 31.6721 38.7495 33.9985 38.75 36.375V36.375ZM25 36.375V43.25H22.25V36.375C22.2502 33.9987 21.5663 31.6726 20.2802 29.6745C18.994 27.6764 17.1599 26.0907 14.9968 25.1069L16.1353 22.603C18.779 23.8054 21.0207 25.7434 22.5926 28.1856C24.1646 30.6277 25.0003 33.4707 25 36.375Z" fill="#3332CB"/>
</svg>
