<svg width="60" height="60" viewBox="0 0 60 60" fill="none" xmlns="http://www.w3.org/2000/svg">
<circle cx="30" cy="30" r="30" fill="white"/>
<path d="M32.6513 28.1C32.4169 27.8656 32.099 27.734 31.7676 27.734C31.4361 27.734 31.1182 27.8656 30.8838 28.1L30.0001 28.9825C29.7695 29.2212 29.4936 29.4117 29.1886 29.5427C28.8836 29.6737 28.5555 29.7427 28.2236 29.7456C27.8916 29.7485 27.5624 29.6852 27.2552 29.5595C26.9479 29.4338 26.6688 29.2482 26.4341 29.0134C26.1994 28.7787 26.0137 28.4996 25.888 28.1923C25.7623 27.8851 25.6991 27.5559 25.7019 27.224C25.7048 26.892 25.7738 26.564 25.9048 26.2589C26.0358 25.9539 26.2263 25.6781 26.4651 25.4475L33.5026 18.4075C35.1687 18.0285 36.912 18.1845 38.4844 18.8532C40.0568 19.5219 41.3784 20.6693 42.2612 22.1323C43.144 23.5953 43.5431 25.2994 43.4017 27.0022C43.2604 28.7051 42.5858 30.32 41.4738 31.6175L38.8388 34.2862L32.6513 28.0987V28.1ZM18.9513 20.585C20.2448 19.2917 21.9366 18.4724 23.7533 18.2597C25.5699 18.0469 27.4053 18.453 28.9626 19.4125L24.6963 23.68C23.7723 24.6021 23.2456 25.8491 23.2287 27.1544C23.2119 28.4597 23.7062 29.7199 24.606 30.6656C25.5059 31.6113 26.74 32.1676 28.0445 32.2156C29.3491 32.2636 30.6207 31.7995 31.5876 30.9225L31.7676 30.7512L37.0713 36.0537L31.7676 41.3575C31.2988 41.8261 30.663 42.0894 30.0001 42.0894C29.3372 42.0894 28.7014 41.8261 28.2326 41.3575L18.9501 32.075C17.4265 30.5512 16.5706 28.4847 16.5706 26.33C16.5706 24.1752 17.4265 22.1087 18.9501 20.585H18.9513Z" fill="#3332CB"/>
</svg>
