<svg width="767" height="1221" viewBox="0 0 767 1221" fill="none" xmlns="http://www.w3.org/2000/svg">
<mask id="mask0_158_28" style="mask-type:alpha" maskUnits="userSpaceOnUse" x="0" y="0" width="767" height="1221">
<rect width="767" height="1221" fill="white"/>
</mask>
<g mask="url(#mask0_158_28)">
<path d="M476.107 776.723C420.033 839.592 325.174 867.552 217.031 861.844C108.895 856.136 -12.4479 816.761 -121.343 745.048C-230.239 673.335 -306.03 582.889 -340.554 494.648C-375.081 406.402 -368.319 320.426 -312.245 257.557C-256.171 194.687 -161.311 166.727 -53.1688 172.435C54.9674 178.144 176.31 217.519 285.206 289.231C394.101 360.944 469.892 451.391 504.417 539.632C538.943 627.877 532.181 713.853 476.107 776.723Z" stroke="#DEDDEA" stroke-opacity="0.7"/>
<path d="M471.741 818.712C415.667 881.581 320.808 909.541 212.666 903.833C104.529 898.125 -16.8133 858.75 -125.709 787.037C-234.604 715.324 -310.395 624.877 -344.92 536.637C-379.446 448.391 -372.684 362.415 -316.61 299.545C-260.536 236.676 -165.677 208.716 -57.5343 214.424C50.602 220.132 171.945 259.507 280.84 331.22C389.736 402.933 465.527 493.38 500.051 581.62C534.577 669.866 527.816 755.842 471.741 818.712Z" stroke="#DEDDEA" stroke-opacity="0.7"/>
<path d="M467.376 860.7C411.302 923.57 316.443 951.53 208.301 945.821C100.164 940.113 -21.1785 900.738 -130.074 829.025C-238.969 757.313 -314.76 666.866 -349.285 578.625C-383.811 490.379 -377.049 404.403 -320.975 341.534C-264.901 278.664 -170.042 250.704 -61.8994 256.413C46.2368 262.121 167.58 301.496 276.475 373.209C385.37 444.921 461.162 535.368 495.686 623.609C530.212 711.855 523.45 797.831 467.376 860.7Z" stroke="#DEDDEA" stroke-opacity="0.7"/>
</g>
</svg>
