<svg width="101" height="65" viewBox="0 0 101 65" fill="none" xmlns="http://www.w3.org/2000/svg">
<path d="M43.4404 61.4903C41.3081 61.3078 37.199 61.1578 33.1992 60.5719C24.346 59.2743 16.4252 56.4731 10.2694 51.2448C5.89254 47.5268 3.82619 43.2327 4.94059 38.1673C6.09239 32.936 9.26625 28.4678 13.6923 24.4911C20.5136 18.3596 29.2939 14.5707 39.2762 12.3629C49.0843 10.1929 59.169 10.1952 69.2567 10.4749C70.248 10.502 71.3358 10.8157 72.1824 11.2312C80.1122 15.1256 86.5633 20.0998 90.6054 26.6906C94.1563 32.4776 94.2321 38.3453 90.5641 44.1413C86.6312 50.3543 80.2156 54.5647 72.0466 57.2897C63.5547 60.1218 54.608 61.292 43.4404 61.4903ZM58.1511 6.7569C56.257 6.86397 54.4299 6.98159 52.5998 7.06829C42.1646 7.56443 32.3496 9.65907 23.339 13.7782C13.8695 18.107 6.64662 23.9837 2.46172 31.8834C-2.37488 41.0099 -0.082077 48.8622 9.31844 55.5359C10.3176 56.2447 11.373 56.9142 12.4618 57.5415C18.8922 61.2482 26.2067 63.4009 34.0852 64.3276C47.1114 65.8598 59.8246 64.7687 72.1194 61.1035C79.6062 58.8716 86.0504 55.4997 90.8624 50.5021C99.2322 41.8137 100.168 32.6759 93.4485 23.1422C90.9835 19.6444 87.7072 16.617 84.0008 13.8559C83.2664 13.3085 82.4818 12.8003 82.0102 11.8947C82.6757 11.9218 83.3924 11.8344 83.9988 11.9942C88.0537 13.0634 92.1274 14.1024 96.1095 15.3179C99.0461 16.2136 100.192 16.32 100.805 15.2651C101.404 14.2359 100.66 13.4057 98.0518 12.2317C93.0941 9.99837 87.6422 8.86434 82.0506 8.06434C80.2992 7.81325 78.5262 7.63682 76.7552 7.48829C73.922 7.25153 71.3063 6.64831 68.6926 5.68393C56.3269 1.12068 43.279 -0.82164 29.5676 0.319931C24.0881 0.776108 18.8745 1.96894 14.1983 4.29053C13.3291 4.72182 12.3417 5.20061 11.8701 5.85283C11.5137 6.3452 11.621 7.28545 12.0355 7.76802C12.3161 8.09375 13.4895 8.03268 14.2614 8.01986C14.6227 8.01383 14.9888 7.7273 15.3314 7.54332C19.8471 5.10713 25.0283 4.0666 30.3896 3.70015C39.2565 3.09393 47.9876 3.87734 56.5258 5.83098C57.016 5.94257 57.4836 6.11674 57.9532 6.27583C58.0074 6.29469 58.0103 6.40176 58.1511 6.7569Z" fill="#3332CB"/>
</svg>
