<svg width="500" height="997" viewBox="0 0 500 997" fill="none" xmlns="http://www.w3.org/2000/svg">
<path d="M-218.874 333.623C-243.277 382.215 -237.151 440.437 -207.42 495.325C-177.69 550.211 -124.375 601.716 -54.508 636.803C15.3587 671.891 88.5101 683.897 150.289 674.967C212.069 666.037 262.428 636.183 286.831 587.591C311.234 538.999 305.108 480.777 275.377 425.889C245.647 371.003 192.332 319.498 122.465 284.411C52.5983 249.323 -20.5532 237.317 -82.3318 246.247C-144.113 255.177 -194.471 285.031 -218.874 333.623Z" stroke="url(#paint0_linear_137_160)"/>
<path d="M-252.154 375.297C-276.557 423.889 -270.431 482.111 -240.7 536.998C-210.969 591.884 -157.655 643.389 -87.7878 678.477C-17.9211 713.564 55.2303 725.57 117.009 716.641C178.79 707.711 229.148 677.856 253.552 629.264C277.955 580.672 271.828 522.45 242.097 467.563C212.367 412.677 159.052 361.171 89.1852 326.084C19.3185 290.997 -53.833 278.99 -115.612 287.92C-177.392 296.85 -227.751 326.705 -252.154 375.297Z" stroke="url(#paint1_linear_137_160)"/>
<path d="M-288.371 409.506C-312.774 458.098 -306.648 516.32 -276.917 571.208C-247.186 626.094 -193.872 677.599 -124.005 712.686C-54.1382 747.774 19.0133 759.78 80.7919 750.85C142.573 741.921 192.931 712.066 217.334 663.474C241.738 614.882 235.611 556.66 205.88 501.772C176.15 446.887 122.835 395.381 52.9681 360.294C-16.8985 325.206 -90.05 313.2 -151.829 322.13C-213.609 331.06 -263.968 360.914 -288.371 409.506Z" stroke="url(#paint2_linear_137_160)"/>
<defs>
<linearGradient id="paint0_linear_137_160" x1="190.2" y1="667.378" x2="-189.045" y2="284.364" gradientUnits="userSpaceOnUse">
<stop stop-color="#D6D6F5"/>
<stop offset="1" stop-color="#D6D6F5" stop-opacity="0.3"/>
</linearGradient>
<linearGradient id="paint1_linear_137_160" x1="197.336" y1="658.055" x2="-184.448" y2="272.476" gradientUnits="userSpaceOnUse">
<stop stop-color="#D6D6F5"/>
<stop offset="1" stop-color="#D6D6F5" stop-opacity="0.3"/>
</linearGradient>
<linearGradient id="paint2_linear_137_160" x1="185.19" y1="705.637" x2="-242.025" y2="274.177" gradientUnits="userSpaceOnUse">
<stop stop-color="#D6D6F5"/>
<stop offset="1" stop-color="#D6D6F5" stop-opacity="0.3"/>
</linearGradient>
</defs>
</svg>
