<svg width="40" height="40" viewBox="0 0 40 40" fill="none" xmlns="http://www.w3.org/2000/svg">
<path d="M24.9173 20.2773L17.8513 24.988C17.8011 25.0214 17.7428 25.0406 17.6826 25.0434C17.6224 25.0463 17.5625 25.0328 17.5093 25.0044C17.4562 24.9759 17.4117 24.9336 17.3808 24.8818C17.3498 24.8301 17.3334 24.771 17.3333 24.7107V15.2893C17.3334 15.229 17.3498 15.1699 17.3808 15.1182C17.4117 15.0664 17.4562 15.0241 17.5093 14.9956C17.5625 14.9672 17.6224 14.9537 17.6826 14.9566C17.7428 14.9594 17.8011 14.9786 17.8513 15.012L24.9173 19.7227C24.963 19.7531 25.0004 19.7944 25.0263 19.8427C25.0522 19.8911 25.0658 19.9451 25.0658 20C25.0658 20.0549 25.0522 20.1089 25.0263 20.1573C25.0004 20.2057 24.963 20.2469 24.9173 20.2773Z" fill="#3332CB"/>
<circle cx="20" cy="20" r="19" stroke="#3332CB" stroke-width="2"/>
</svg>
