<svg width="33" height="29" viewBox="0 0 33 29" fill="none" xmlns="http://www.w3.org/2000/svg">
<path d="M16.5 14.5C14.6766 14.5 12.928 13.7757 11.6386 12.4864C10.3493 11.197 9.625 9.44836 9.625 7.625C9.625 5.80164 10.3493 4.05295 11.6386 2.76364C12.928 1.47433 14.6766 0.75 16.5 0.75C18.3234 0.75 20.072 1.47433 21.3614 2.76364C22.6507 4.05295 23.375 5.80164 23.375 7.625C23.375 9.44836 22.6507 11.197 21.3614 12.4864C20.072 13.7757 18.3234 14.5 16.5 14.5ZM24.75 21.375V28.25H22V21.375C22 15.2549 25.6355 9.98313 30.8646 7.603L32.0031 10.1055C29.8399 11.0894 28.0056 12.6753 26.7194 14.6737C25.4332 16.6721 24.7495 18.9985 24.75 21.375ZM11 21.375V28.25H8.25V21.375C8.2502 18.9987 7.56638 16.6726 6.28022 14.6745C4.99406 12.6764 3.15992 11.0907 0.996872 10.1069L2.13537 7.603C4.77907 8.80543 7.02075 10.7434 8.59268 13.1856C10.1646 15.6277 11.0003 18.4707 11 21.375Z" fill="#3332CB"/>
</svg>
