<svg width="28" height="25" viewBox="0 0 28 25" fill="none" xmlns="http://www.w3.org/2000/svg">
<path d="M16.6513 10.1C16.4169 9.86561 16.099 9.73397 15.7675 9.73397C15.4361 9.73397 15.1182 9.86561 14.8838 10.1L14 10.9825C13.7694 11.2212 13.4935 11.4117 13.1885 11.5427C12.8835 11.6737 12.5555 11.7427 12.2235 11.7456C11.8916 11.7485 11.5624 11.6852 11.2551 11.5595C10.9479 11.4338 10.6688 11.2482 10.434 11.0134C10.1993 10.7787 10.0137 10.4996 9.88796 10.1923C9.76225 9.8851 9.699 9.5559 9.70188 9.22395C9.70477 8.892 9.77373 8.56395 9.90476 8.25894C10.0358 7.95393 10.2262 7.67807 10.465 7.44745L17.5025 0.407455C19.1687 0.0284881 20.9119 0.184453 22.4843 0.853173C24.0567 1.52189 25.3783 2.66933 26.2611 4.13232C27.1439 5.59531 27.543 7.29939 27.4017 9.00224C27.2603 10.7051 26.5857 12.32 25.4738 13.6175L22.8388 16.2862L16.6513 10.0987V10.1ZM2.95126 2.58495C4.24471 1.29168 5.93653 0.472429 7.75321 0.259663C9.56989 0.046897 11.4052 0.453049 12.9625 1.41246L8.69626 5.67995C7.77226 6.60211 7.24555 7.84908 7.22868 9.1544C7.21181 10.4597 7.70612 11.7199 8.60598 12.6656C9.50585 13.6113 10.7399 14.1676 12.0444 14.2156C13.349 14.2636 14.6206 13.7995 15.5875 12.9225L15.7675 12.7512L21.0713 18.0537L15.7675 23.3575C15.2987 23.8261 14.6629 24.0894 14 24.0894C13.3371 24.0894 12.7013 23.8261 12.2325 23.3575L2.95001 14.075C1.42643 12.5512 0.570496 10.4847 0.570496 8.32995C0.570496 6.17519 1.42643 4.10867 2.95001 2.58495H2.95126Z" fill="#3332CB"/>
</svg>
