<svg width="29" height="29" viewBox="0 0 29 29" fill="none" xmlns="http://www.w3.org/2000/svg">
<path d="M8.02513 26.633L0.75 28.25L2.367 20.9749C1.30211 18.983 0.7466 16.7586 0.75 14.5C0.75 6.90588 6.90588 0.75 14.5 0.75C22.0941 0.75 28.25 6.90588 28.25 14.5C28.25 22.0941 22.0941 28.25 14.5 28.25C12.2414 28.2534 10.017 27.6979 8.02513 26.633ZM7.625 14.5C7.625 16.3234 8.34933 18.072 9.63864 19.3614C10.928 20.6507 12.6766 21.375 14.5 21.375C16.3234 21.375 18.072 20.6507 19.3614 19.3614C20.6507 18.072 21.375 16.3234 21.375 14.5H18.625C18.625 15.594 18.1904 16.6432 17.4168 17.4168C16.6432 18.1904 15.594 18.625 14.5 18.625C13.406 18.625 12.3568 18.1904 11.5832 17.4168C10.8096 16.6432 10.375 15.594 10.375 14.5H7.625Z" fill="#3332CB"/>
</svg>
